<svg width="96" height="96" viewBox="0 0 96 96" fill="none" xmlns="http://www.w3.org/2000/svg">
<rect width="96" height="96" rx="10" fill="#DD0031" fill-opacity="0.15"/>
<path d="M27.4324 81.398L24.4084 88.51C24.3431 88.6873 24.2404 88.8273 24.1004 88.93C23.9697 89.0233 23.8251 89.07 23.6664 89.07C23.4144 89.07 23.2277 89 23.1064 88.86C22.9851 88.72 22.9244 88.5473 22.9244 88.342C22.9244 88.258 22.9384 88.1693 22.9664 88.076L26.4524 79.704C26.5271 79.5173 26.6391 79.3727 26.7884 79.27C26.9471 79.1673 27.1151 79.1253 27.2924 79.144C27.4604 79.144 27.6144 79.1953 27.7544 79.298C27.9037 79.3913 28.0111 79.5267 28.0764 79.704L31.5204 87.908C31.5671 88.0293 31.5904 88.1413 31.5904 88.244C31.5904 88.496 31.5064 88.6967 31.3384 88.846C31.1797 88.9953 31.0024 89.07 30.8064 89.07C30.6384 89.07 30.4844 89.0187 30.3444 88.916C30.2137 88.8133 30.1111 88.6733 30.0364 88.496L27.0264 81.482L27.4324 81.398ZM24.8424 86.802L25.6124 85.192H29.3924L29.6584 86.802H24.8424ZM36.2198 81.37C36.9105 81.37 37.4332 81.5147 37.7878 81.804C38.1518 82.0933 38.3992 82.4807 38.5298 82.966C38.6698 83.442 38.7398 83.974 38.7398 84.562V88.146C38.7398 88.3887 38.6605 88.594 38.5018 88.762C38.3432 88.9207 38.1425 89 37.8998 89C37.6572 89 37.4565 88.9207 37.2978 88.762C37.1392 88.594 37.0598 88.3887 37.0598 88.146V84.562C37.0598 84.254 37.0178 83.9787 36.9338 83.736C36.8592 83.484 36.7192 83.2833 36.5138 83.134C36.3085 82.9847 36.0145 82.91 35.6318 82.91C35.2585 82.91 34.9412 82.9847 34.6798 83.134C34.4278 83.2833 34.2318 83.484 34.0918 83.736C33.9612 83.9787 33.8958 84.254 33.8958 84.562V88.146C33.8958 88.3887 33.8165 88.594 33.6578 88.762C33.4992 88.9207 33.2985 89 33.0558 89C32.8132 89 32.6125 88.9207 32.4538 88.762C32.2952 88.594 32.2158 88.3887 32.2158 88.146V82.364C32.2158 82.1213 32.2952 81.9207 32.4538 81.762C32.6125 81.594 32.8132 81.51 33.0558 81.51C33.2985 81.51 33.4992 81.594 33.6578 81.762C33.8165 81.9207 33.8958 82.1213 33.8958 82.364V82.966L33.6858 82.924C33.7698 82.7653 33.8912 82.5973 34.0498 82.42C34.2085 82.2333 34.3952 82.0607 34.6098 81.902C34.8245 81.7433 35.0672 81.6173 35.3378 81.524C35.6085 81.4213 35.9025 81.37 36.2198 81.37ZM43.2437 81.37C43.6357 81.37 43.995 81.4307 44.3217 81.552C44.6483 81.6733 44.9283 81.8273 45.1617 82.014C45.4043 82.2007 45.591 82.392 45.7217 82.588C45.8617 82.7747 45.9317 82.9333 45.9317 83.064L45.5677 83.246V82.224C45.5677 81.9813 45.647 81.7807 45.8057 81.622C45.9643 81.454 46.165 81.37 46.4077 81.37C46.6503 81.37 46.851 81.4493 47.0097 81.608C47.1683 81.7667 47.2477 81.972 47.2477 82.224V88.454C47.2477 89.266 47.0703 89.9147 46.7157 90.4C46.3703 90.8947 45.913 91.2493 45.3437 91.464C44.7743 91.688 44.163 91.8 43.5097 91.8C43.323 91.8 43.0803 91.7767 42.7817 91.73C42.483 91.6833 42.1983 91.6273 41.9277 91.562C41.657 91.4967 41.4517 91.436 41.3117 91.38C41.0317 91.2587 40.8357 91.1047 40.7237 90.918C40.621 90.7407 40.6023 90.5493 40.6677 90.344C40.7517 90.0733 40.887 89.8867 41.0737 89.784C41.2603 89.6907 41.4563 89.6813 41.6617 89.756C41.755 89.784 41.909 89.84 42.1237 89.924C42.3383 90.008 42.5717 90.0827 42.8237 90.148C43.085 90.2227 43.3137 90.26 43.5097 90.26C44.2097 90.26 44.7277 90.12 45.0637 89.84C45.3997 89.56 45.5677 89.1727 45.5677 88.678V87.46L45.7357 87.586C45.7357 87.7073 45.6703 87.8567 45.5397 88.034C45.4183 88.202 45.2457 88.37 45.0217 88.538C44.807 88.706 44.5503 88.8507 44.2517 88.972C43.953 89.084 43.6357 89.14 43.2997 89.14C42.637 89.14 42.0397 88.9767 41.5077 88.65C40.9757 88.314 40.5557 87.8567 40.2477 87.278C39.9397 86.69 39.7857 86.018 39.7857 85.262C39.7857 84.4967 39.9397 83.8247 40.2477 83.246C40.5557 82.658 40.971 82.2007 41.4937 81.874C42.0163 81.538 42.5997 81.37 43.2437 81.37ZM43.5097 82.91C43.0897 82.91 42.721 83.0127 42.4037 83.218C42.0863 83.4233 41.839 83.7033 41.6617 84.058C41.4843 84.4127 41.3957 84.814 41.3957 85.262C41.3957 85.7007 41.4843 86.0973 41.6617 86.452C41.839 86.8067 42.0863 87.0867 42.4037 87.292C42.721 87.4973 43.0897 87.6 43.5097 87.6C43.939 87.6 44.3123 87.4973 44.6297 87.292C44.947 87.0867 45.1943 86.8067 45.3717 86.452C45.549 86.0973 45.6377 85.7007 45.6377 85.262C45.6377 84.814 45.549 84.4127 45.3717 84.058C45.1943 83.7033 44.947 83.4233 44.6297 83.218C44.3123 83.0127 43.939 82.91 43.5097 82.91ZM54.092 81.51C54.3347 81.51 54.5354 81.594 54.694 81.762C54.8527 81.9207 54.932 82.1213 54.932 82.364V85.92C54.932 86.9093 54.6567 87.6933 54.106 88.272C53.5554 88.8507 52.762 89.14 51.726 89.14C50.69 89.14 49.8967 88.8507 49.346 88.272C48.8047 87.6933 48.534 86.9093 48.534 85.92V82.364C48.534 82.1213 48.6134 81.9207 48.772 81.762C48.9307 81.594 49.1314 81.51 49.374 81.51C49.6167 81.51 49.8174 81.594 49.976 81.762C50.1347 81.9207 50.214 82.1213 50.214 82.364V85.92C50.214 86.4893 50.34 86.914 50.592 87.194C50.844 87.4647 51.222 87.6 51.726 87.6C52.2394 87.6 52.622 87.4647 52.874 87.194C53.126 86.914 53.252 86.4893 53.252 85.92V82.364C53.252 82.1213 53.3314 81.9207 53.49 81.762C53.6487 81.594 53.8494 81.51 54.092 81.51ZM58.1508 88.146C58.1508 88.3887 58.0668 88.594 57.8988 88.762C57.7402 88.9207 57.5395 89 57.2968 89C57.0635 89 56.8675 88.9207 56.7088 88.762C56.5502 88.594 56.4708 88.3887 56.4708 88.146V79.494C56.4708 79.2513 56.5502 79.0507 56.7088 78.892C56.8768 78.724 57.0822 78.64 57.3248 78.64C57.5675 78.64 57.7635 78.724 57.9128 78.892C58.0715 79.0507 58.1508 79.2513 58.1508 79.494V88.146ZM65.8163 81.37C66.0589 81.37 66.2596 81.4493 66.4183 81.608C66.5769 81.7667 66.6563 81.972 66.6563 82.224V88.146C66.6563 88.3887 66.5769 88.594 66.4183 88.762C66.2596 88.9207 66.0589 89 65.8163 89C65.5736 89 65.3729 88.9207 65.2143 88.762C65.0556 88.594 64.9763 88.3887 64.9763 88.146V87.46L65.2843 87.586C65.2843 87.7073 65.2189 87.8567 65.0883 88.034C64.9576 88.202 64.7803 88.37 64.5563 88.538C64.3323 88.706 64.0663 88.8507 63.7583 88.972C63.4596 89.084 63.1329 89.14 62.7783 89.14C62.1343 89.14 61.5509 88.9767 61.0283 88.65C60.5056 88.314 60.0903 87.8567 59.7823 87.278C59.4836 86.69 59.3343 86.018 59.3343 85.262C59.3343 84.4967 59.4836 83.8247 59.7823 83.246C60.0903 82.658 60.5009 82.2007 61.0143 81.874C61.5276 81.538 62.0969 81.37 62.7223 81.37C63.1236 81.37 63.4923 81.4307 63.8283 81.552C64.1643 81.6733 64.4536 81.8273 64.6963 82.014C64.9483 82.2007 65.1396 82.392 65.2703 82.588C65.4103 82.7747 65.4803 82.9333 65.4803 83.064L64.9763 83.246V82.224C64.9763 81.9813 65.0556 81.7807 65.2143 81.622C65.3729 81.454 65.5736 81.37 65.8163 81.37ZM62.9883 87.6C63.3989 87.6 63.7583 87.4973 64.0663 87.292C64.3743 87.0867 64.6123 86.8067 64.7803 86.452C64.9576 86.0973 65.0463 85.7007 65.0463 85.262C65.0463 84.814 64.9576 84.4127 64.7803 84.058C64.6123 83.7033 64.3743 83.4233 64.0663 83.218C63.7583 83.0127 63.3989 82.91 62.9883 82.91C62.5869 82.91 62.2323 83.0127 61.9243 83.218C61.6163 83.4233 61.3736 83.7033 61.1963 84.058C61.0283 84.4127 60.9443 84.814 60.9443 85.262C60.9443 85.7007 61.0283 86.0973 61.1963 86.452C61.3736 86.8067 61.6163 87.0867 61.9243 87.292C62.2323 87.4973 62.5869 87.6 62.9883 87.6ZM68.8953 89C68.6526 89 68.4519 88.9207 68.2933 88.762C68.1346 88.594 68.0553 88.3887 68.0553 88.146V82.364C68.0553 82.1213 68.1346 81.9207 68.2933 81.762C68.4519 81.594 68.6526 81.51 68.8953 81.51C69.1379 81.51 69.3386 81.594 69.4973 81.762C69.6559 81.9207 69.7353 82.1213 69.7353 82.364V83.68L69.6373 82.742C69.7399 82.518 69.8706 82.322 70.0293 82.154C70.1973 81.9767 70.3839 81.832 70.5893 81.72C70.7946 81.5987 71.0139 81.51 71.2473 81.454C71.4806 81.398 71.7139 81.37 71.9473 81.37C72.2273 81.37 72.4606 81.4493 72.6473 81.608C72.8433 81.7667 72.9413 81.9533 72.9413 82.168C72.9413 82.476 72.8619 82.7 72.7033 82.84C72.5446 82.9707 72.3719 83.036 72.1853 83.036C72.0079 83.036 71.8446 83.0033 71.6953 82.938C71.5553 82.8727 71.3919 82.84 71.2053 82.84C71.0373 82.84 70.8646 82.882 70.6873 82.966C70.5193 83.0407 70.3606 83.162 70.2113 83.33C70.0713 83.498 69.9546 83.708 69.8613 83.96C69.7773 84.2027 69.7353 84.492 69.7353 84.828V88.146C69.7353 88.3887 69.6559 88.594 69.4973 88.762C69.3386 88.9207 69.1379 89 68.8953 89Z" fill="white"/>
<path d="M48 10L18 20.624L22.5757 60.016L48 74L73.4243 60.016L78 20.624L48 10Z" fill="#DD0031" stroke="white" stroke-width="0.00064"/>
<path d="M48 10V17.104V17.072V49.488V74L73.4243 60.016L78 20.624L48 10Z" fill="#DD0031" stroke="white" stroke-width="0.00064"/>
<path d="M48.0001 17.072L29.2461 58.832H36.2386L40.0087 49.488H55.9271L59.6972 58.832H66.6897L48.0001 17.072ZM53.4781 43.728H42.5221L48.0001 30.64L53.4781 43.728Z" fill="white" stroke="white" stroke-width="0.00064"/>
</svg>
