<svg width="96" height="96" viewBox="0 0 96 96" fill="none" xmlns="http://www.w3.org/2000/svg">
<rect width="96" height="96" rx="10" fill="#563D7C" fill-opacity="0.15"/>
<path d="M20.8093 79.2C21.7053 79.2 22.3726 79.41 22.8113 79.83C23.2499 80.25 23.4693 80.8707 23.4693 81.692C23.4693 82.1307 23.3619 82.518 23.1473 82.854C22.9326 83.1807 22.6153 83.4373 22.1953 83.624C21.7753 83.8013 21.2573 83.89 20.6413 83.89L20.6973 83.26C20.9866 83.26 21.3179 83.302 21.6913 83.386C22.0646 83.4607 22.4239 83.6007 22.7693 83.806C23.1239 84.002 23.4133 84.282 23.6373 84.646C23.8706 85.0007 23.9873 85.458 23.9873 86.018C23.9873 86.634 23.8846 87.138 23.6793 87.53C23.4833 87.922 23.2219 88.2253 22.8953 88.44C22.5686 88.6547 22.2186 88.804 21.8453 88.888C21.4719 88.9627 21.1126 89 20.7673 89H17.2813C17.0386 89 16.8333 88.9207 16.6653 88.762C16.5066 88.594 16.4273 88.3887 16.4273 88.146V80.054C16.4273 79.8113 16.5066 79.6107 16.6653 79.452C16.8333 79.284 17.0386 79.2 17.2813 79.2H20.8093ZM20.5573 80.852H18.0653L18.2473 80.628V83.162L18.0793 83.036H20.5993C20.8699 83.036 21.1126 82.9473 21.3273 82.77C21.5419 82.5927 21.6493 82.336 21.6493 82C21.6493 81.5987 21.5466 81.3093 21.3413 81.132C21.1453 80.9453 20.8839 80.852 20.5573 80.852ZM20.6693 84.688H18.1213L18.2473 84.576V87.53L18.1073 87.39H20.7673C21.1966 87.39 21.5373 87.278 21.7893 87.054C22.0413 86.8207 22.1673 86.4753 22.1673 86.018C22.1673 85.598 22.0833 85.2947 21.9153 85.108C21.7473 84.9213 21.5466 84.8047 21.3133 84.758C21.0799 84.7113 20.8653 84.688 20.6693 84.688ZM32.2934 85.262C32.2934 86.0273 32.1208 86.704 31.7754 87.292C31.4394 87.8707 30.9821 88.3233 30.4034 88.65C29.8341 88.9767 29.1948 89.14 28.4854 89.14C27.7761 89.14 27.1321 88.9767 26.5534 88.65C25.9841 88.3233 25.5268 87.8707 25.1814 87.292C24.8454 86.704 24.6774 86.0273 24.6774 85.262C24.6774 84.4967 24.8454 83.8247 25.1814 83.246C25.5268 82.658 25.9841 82.2007 26.5534 81.874C27.1321 81.538 27.7761 81.37 28.4854 81.37C29.1948 81.37 29.8341 81.538 30.4034 81.874C30.9821 82.2007 31.4394 82.658 31.7754 83.246C32.1208 83.8247 32.2934 84.4967 32.2934 85.262ZM30.6134 85.262C30.6134 84.786 30.5154 84.3753 30.3194 84.03C30.1328 83.6753 29.8761 83.4 29.5494 83.204C29.2321 83.008 28.8774 82.91 28.4854 82.91C28.0934 82.91 27.7341 83.008 27.4074 83.204C27.0901 83.4 26.8334 83.6753 26.6374 84.03C26.4508 84.3753 26.3574 84.786 26.3574 85.262C26.3574 85.7287 26.4508 86.1393 26.6374 86.494C26.8334 86.8393 27.0901 87.11 27.4074 87.306C27.7341 87.502 28.0934 87.6 28.4854 87.6C28.8774 87.6 29.2321 87.502 29.5494 87.306C29.8761 87.11 30.1328 86.8393 30.3194 86.494C30.5154 86.1393 30.6134 85.7287 30.6134 85.262ZM40.6098 85.262C40.6098 86.0273 40.4371 86.704 40.0918 87.292C39.7558 87.8707 39.2984 88.3233 38.7198 88.65C38.1504 88.9767 37.5111 89.14 36.8018 89.14C36.0924 89.14 35.4484 88.9767 34.8698 88.65C34.3004 88.3233 33.8431 87.8707 33.4978 87.292C33.1618 86.704 32.9938 86.0273 32.9938 85.262C32.9938 84.4967 33.1618 83.8247 33.4978 83.246C33.8431 82.658 34.3004 82.2007 34.8698 81.874C35.4484 81.538 36.0924 81.37 36.8018 81.37C37.5111 81.37 38.1504 81.538 38.7198 81.874C39.2984 82.2007 39.7558 82.658 40.0918 83.246C40.4371 83.8247 40.6098 84.4967 40.6098 85.262ZM38.9298 85.262C38.9298 84.786 38.8318 84.3753 38.6358 84.03C38.4491 83.6753 38.1924 83.4 37.8658 83.204C37.5484 83.008 37.1938 82.91 36.8018 82.91C36.4098 82.91 36.0504 83.008 35.7238 83.204C35.4064 83.4 35.1498 83.6753 34.9538 84.03C34.7671 84.3753 34.6738 84.786 34.6738 85.262C34.6738 85.7287 34.7671 86.1393 34.9538 86.494C35.1498 86.8393 35.4064 87.11 35.7238 87.306C36.0504 87.502 36.4098 87.6 36.8018 87.6C37.1938 87.6 37.5484 87.502 37.8658 87.306C38.1924 87.11 38.4491 86.8393 38.6358 86.494C38.8318 86.1393 38.9298 85.7287 38.9298 85.262ZM41.7441 81.65H45.0621C45.2861 81.65 45.4727 81.7247 45.6221 81.874C45.7714 82.0233 45.8461 82.21 45.8461 82.434C45.8461 82.6487 45.7714 82.8307 45.6221 82.98C45.4727 83.12 45.2861 83.19 45.0621 83.19H41.7441C41.5201 83.19 41.3334 83.1153 41.1841 82.966C41.0347 82.8167 40.9601 82.63 40.9601 82.406C40.9601 82.1913 41.0347 82.014 41.1841 81.874C41.3334 81.7247 41.5201 81.65 41.7441 81.65ZM43.2421 79.9C43.4847 79.9 43.6807 79.984 43.8301 80.152C43.9887 80.3107 44.0681 80.5113 44.0681 80.754V86.984C44.0681 87.1147 44.0914 87.222 44.1381 87.306C44.1941 87.39 44.2641 87.4507 44.3481 87.488C44.4414 87.5253 44.5394 87.544 44.6421 87.544C44.7541 87.544 44.8567 87.5253 44.9501 87.488C45.0434 87.4413 45.1507 87.418 45.2721 87.418C45.4027 87.418 45.5194 87.4787 45.6221 87.6C45.7341 87.7213 45.7901 87.8893 45.7901 88.104C45.7901 88.3653 45.6454 88.58 45.3561 88.748C45.0761 88.916 44.7727 89 44.4461 89C44.2501 89 44.0307 88.986 43.7881 88.958C43.5547 88.9207 43.3307 88.8413 43.1161 88.72C42.9107 88.5893 42.7381 88.3933 42.5981 88.132C42.4581 87.8707 42.3881 87.5113 42.3881 87.054V80.754C42.3881 80.5113 42.4674 80.3107 42.6261 80.152C42.7941 79.984 42.9994 79.9 43.2421 79.9ZM46.808 87.838C46.7147 87.7073 46.6727 87.5393 46.682 87.334C46.6914 87.1287 46.8127 86.9513 47.046 86.802C47.1954 86.7087 47.354 86.6713 47.522 86.69C47.69 86.6993 47.8534 86.7833 48.012 86.942C48.2827 87.2127 48.5674 87.4227 48.866 87.572C49.1647 87.7213 49.538 87.796 49.986 87.796C50.126 87.7867 50.28 87.768 50.448 87.74C50.616 87.7027 50.7607 87.628 50.882 87.516C51.0127 87.3947 51.078 87.2127 51.078 86.97C51.078 86.7647 51.008 86.6013 50.868 86.48C50.728 86.3587 50.5414 86.256 50.308 86.172C50.084 86.088 49.832 86.0087 49.552 85.934C49.2627 85.85 48.964 85.7567 48.656 85.654C48.3574 85.5513 48.082 85.4207 47.83 85.262C47.578 85.094 47.3727 84.8747 47.214 84.604C47.0554 84.3333 46.976 83.9927 46.976 83.582C46.976 83.1153 47.1067 82.7187 47.368 82.392C47.6294 82.0653 47.9654 81.8133 48.376 81.636C48.796 81.4587 49.2347 81.37 49.692 81.37C49.9814 81.37 50.2847 81.4073 50.602 81.482C50.9194 81.5473 51.2227 81.6593 51.512 81.818C51.8014 81.9673 52.044 82.168 52.24 82.42C52.3427 82.56 52.4034 82.728 52.422 82.924C52.4407 83.12 52.352 83.2973 52.156 83.456C52.016 83.568 51.8527 83.6193 51.666 83.61C51.4794 83.5913 51.3254 83.526 51.204 83.414C51.0454 83.2087 50.8307 83.0453 50.56 82.924C50.2987 82.8027 49.9954 82.742 49.65 82.742C49.51 82.742 49.356 82.7607 49.188 82.798C49.0294 82.826 48.8894 82.896 48.768 83.008C48.6467 83.1107 48.586 83.2787 48.586 83.512C48.586 83.7267 48.656 83.8993 48.796 84.03C48.936 84.1513 49.1227 84.254 49.356 84.338C49.5987 84.4127 49.8554 84.4873 50.126 84.562C50.406 84.6367 50.6907 84.7253 50.98 84.828C51.2694 84.9307 51.5354 85.066 51.778 85.234C52.0207 85.402 52.2167 85.6213 52.366 85.892C52.5154 86.1533 52.59 86.4893 52.59 86.9C52.59 87.376 52.45 87.782 52.17 88.118C51.89 88.454 51.54 88.7107 51.12 88.888C50.7 89.056 50.2707 89.14 49.832 89.14C49.2814 89.14 48.7307 89.0467 48.18 88.86C47.6294 88.664 47.172 88.3233 46.808 87.838ZM53.6599 81.65H56.9779C57.2019 81.65 57.3886 81.7247 57.5379 81.874C57.6873 82.0233 57.7619 82.21 57.7619 82.434C57.7619 82.6487 57.6873 82.8307 57.5379 82.98C57.3886 83.12 57.2019 83.19 56.9779 83.19H53.6599C53.4359 83.19 53.2493 83.1153 53.0999 82.966C52.9506 82.8167 52.8759 82.63 52.8759 82.406C52.8759 82.1913 52.9506 82.014 53.0999 81.874C53.2493 81.7247 53.4359 81.65 53.6599 81.65ZM55.1579 79.9C55.4006 79.9 55.5966 79.984 55.7459 80.152C55.9046 80.3107 55.9839 80.5113 55.9839 80.754V86.984C55.9839 87.1147 56.0073 87.222 56.0539 87.306C56.1099 87.39 56.1799 87.4507 56.2639 87.488C56.3573 87.5253 56.4553 87.544 56.5579 87.544C56.6699 87.544 56.7726 87.5253 56.8659 87.488C56.9593 87.4413 57.0666 87.418 57.1879 87.418C57.3186 87.418 57.4353 87.4787 57.5379 87.6C57.6499 87.7213 57.7059 87.8893 57.7059 88.104C57.7059 88.3653 57.5613 88.58 57.2719 88.748C56.9919 88.916 56.6886 89 56.3619 89C56.1659 89 55.9466 88.986 55.7039 88.958C55.4706 88.9207 55.2466 88.8413 55.0319 88.72C54.8266 88.5893 54.6539 88.3933 54.5139 88.132C54.3739 87.8707 54.3039 87.5113 54.3039 87.054V80.754C54.3039 80.5113 54.3833 80.3107 54.5419 80.152C54.7099 79.984 54.9153 79.9 55.1579 79.9ZM59.7245 89C59.4818 89 59.2811 88.9207 59.1225 88.762C58.9638 88.594 58.8845 88.3887 58.8845 88.146V82.364C58.8845 82.1213 58.9638 81.9207 59.1225 81.762C59.2811 81.594 59.4818 81.51 59.7245 81.51C59.9671 81.51 60.1678 81.594 60.3265 81.762C60.4851 81.9207 60.5645 82.1213 60.5645 82.364V83.68L60.4665 82.742C60.5691 82.518 60.6998 82.322 60.8585 82.154C61.0265 81.9767 61.2131 81.832 61.4185 81.72C61.6238 81.5987 61.8431 81.51 62.0765 81.454C62.3098 81.398 62.5431 81.37 62.7765 81.37C63.0565 81.37 63.2898 81.4493 63.4765 81.608C63.6725 81.7667 63.7705 81.9533 63.7705 82.168C63.7705 82.476 63.6911 82.7 63.5325 82.84C63.3738 82.9707 63.2011 83.036 63.0145 83.036C62.8371 83.036 62.6738 83.0033 62.5245 82.938C62.3845 82.8727 62.2211 82.84 62.0345 82.84C61.8665 82.84 61.6938 82.882 61.5165 82.966C61.3485 83.0407 61.1898 83.162 61.0405 83.33C60.9005 83.498 60.7838 83.708 60.6905 83.96C60.6065 84.2027 60.5645 84.492 60.5645 84.828V88.146C60.5645 88.3887 60.4851 88.594 60.3265 88.762C60.1678 88.9207 59.9671 89 59.7245 89ZM70.5027 81.37C70.7454 81.37 70.946 81.4493 71.1047 81.608C71.2634 81.7667 71.3427 81.972 71.3427 82.224V88.146C71.3427 88.3887 71.2634 88.594 71.1047 88.762C70.946 88.9207 70.7454 89 70.5027 89C70.26 89 70.0594 88.9207 69.9007 88.762C69.742 88.594 69.6627 88.3887 69.6627 88.146V87.46L69.9707 87.586C69.9707 87.7073 69.9054 87.8567 69.7747 88.034C69.644 88.202 69.4667 88.37 69.2427 88.538C69.0187 88.706 68.7527 88.8507 68.4447 88.972C68.146 89.084 67.8194 89.14 67.4647 89.14C66.8207 89.14 66.2374 88.9767 65.7147 88.65C65.192 88.314 64.7767 87.8567 64.4687 87.278C64.17 86.69 64.0207 86.018 64.0207 85.262C64.0207 84.4967 64.17 83.8247 64.4687 83.246C64.7767 82.658 65.1874 82.2007 65.7007 81.874C66.214 81.538 66.7834 81.37 67.4087 81.37C67.81 81.37 68.1787 81.4307 68.5147 81.552C68.8507 81.6733 69.14 81.8273 69.3827 82.014C69.6347 82.2007 69.826 82.392 69.9567 82.588C70.0967 82.7747 70.1667 82.9333 70.1667 83.064L69.6627 83.246V82.224C69.6627 81.9813 69.742 81.7807 69.9007 81.622C70.0594 81.454 70.26 81.37 70.5027 81.37ZM67.6747 87.6C68.0854 87.6 68.4447 87.4973 68.7527 87.292C69.0607 87.0867 69.2987 86.8067 69.4667 86.452C69.644 86.0973 69.7327 85.7007 69.7327 85.262C69.7327 84.814 69.644 84.4127 69.4667 84.058C69.2987 83.7033 69.0607 83.4233 68.7527 83.218C68.4447 83.0127 68.0854 82.91 67.6747 82.91C67.2734 82.91 66.9187 83.0127 66.6107 83.218C66.3027 83.4233 66.06 83.7033 65.8827 84.058C65.7147 84.4127 65.6307 84.814 65.6307 85.262C65.6307 85.7007 65.7147 86.0973 65.8827 86.452C66.06 86.8067 66.3027 87.0867 66.6107 87.292C66.9187 87.4973 67.2734 87.6 67.6747 87.6ZM76.6197 81.37C77.2731 81.37 77.8564 81.538 78.3697 81.874C78.8924 82.2007 79.3031 82.6533 79.6017 83.232C79.9097 83.8107 80.0637 84.4827 80.0637 85.248C80.0637 86.0133 79.9097 86.69 79.6017 87.278C79.3031 87.8567 78.8971 88.314 78.3837 88.65C77.8797 88.9767 77.3104 89.14 76.6757 89.14C76.3024 89.14 75.9524 89.0793 75.6257 88.958C75.2991 88.8367 75.0097 88.6827 74.7577 88.496C74.5151 88.3093 74.3237 88.1227 74.1837 87.936C74.0531 87.74 73.9877 87.5767 73.9877 87.446L74.4217 87.264V90.946C74.4217 91.1887 74.3424 91.3893 74.1837 91.548C74.0251 91.716 73.8244 91.8 73.5817 91.8C73.3391 91.8 73.1384 91.7207 72.9797 91.562C72.8211 91.4033 72.7417 91.198 72.7417 90.946V82.364C72.7417 82.1213 72.8211 81.9207 72.9797 81.762C73.1384 81.594 73.3391 81.51 73.5817 81.51C73.8244 81.51 74.0251 81.594 74.1837 81.762C74.3424 81.9207 74.4217 82.1213 74.4217 82.364V83.05L74.1837 82.924C74.1837 82.8027 74.2491 82.658 74.3797 82.49C74.5104 82.3127 74.6877 82.14 74.9117 81.972C75.1357 81.7947 75.3924 81.65 75.6817 81.538C75.9804 81.426 76.2931 81.37 76.6197 81.37ZM76.4097 82.91C75.9991 82.91 75.6397 83.0127 75.3317 83.218C75.0237 83.4233 74.7811 83.7033 74.6037 84.058C74.4357 84.4033 74.3517 84.8 74.3517 85.248C74.3517 85.6867 74.4357 86.088 74.6037 86.452C74.7811 86.8067 75.0237 87.0867 75.3317 87.292C75.6397 87.4973 75.9991 87.6 76.4097 87.6C76.8204 87.6 77.1751 87.4973 77.4737 87.292C77.7817 87.0867 78.0197 86.8067 78.1877 86.452C78.3651 86.088 78.4537 85.6867 78.4537 85.248C78.4537 84.8 78.3651 84.4033 78.1877 84.058C78.0197 83.7033 77.7817 83.4233 77.4737 83.218C77.1751 83.0127 76.8204 82.91 76.4097 82.91Z" fill="white"/>
<path fill-rule="evenodd" clip-rule="evenodd" d="M29.293 16C25.6412 16 22.9391 19.1962 23.0601 22.6625C23.1761 25.9927 23.0254 30.3056 21.9395 33.8229C20.8505 37.3504 19.0085 39.5851 16 39.872V43.1109C19.0085 43.3979 20.8505 45.6325 21.9395 49.1603C23.0254 52.6773 23.1761 56.9904 23.0601 60.3205C22.9391 63.7864 25.6412 66.9829 29.2935 66.9829H66.7117C70.3637 66.9829 73.0653 63.7869 72.9443 60.3205C72.8283 56.9904 72.9789 52.6773 74.0648 49.1603C75.1544 45.6325 76.9915 43.3979 80 43.1109V39.872C76.9915 39.5851 75.1544 37.3504 74.0648 33.8229C72.9789 30.3062 72.8283 25.9927 72.9443 22.6625C73.0653 19.1967 70.3637 16 66.7117 16H29.293ZM59.3899 47.3832C59.3899 52.1563 55.8296 55.0509 49.9216 55.0509H39.8644C39.5767 55.0509 39.3008 54.9365 39.0974 54.7331C38.8939 54.5296 38.7797 54.2539 38.7797 53.9661V29.017C38.7797 28.7293 38.8939 28.4534 39.0974 28.2499C39.3008 28.0465 39.5767 27.9322 39.8644 27.9322H49.8643C54.7904 27.9322 58.0235 30.6007 58.0235 34.6978C58.0235 37.5733 55.8488 40.148 53.0776 40.5987V40.7491C56.8499 41.1629 59.3899 43.7749 59.3899 47.3832ZM48.8251 31.3709H43.0904V39.4707H47.9203C51.6539 39.4707 53.7128 37.9672 53.7128 35.2797C53.7128 32.7615 51.9424 31.3709 48.8251 31.3709ZM43.0904 42.6848V51.6112H49.036C52.9232 51.6112 54.9824 50.0512 54.9824 47.1197C54.9824 44.1877 52.8656 42.6843 48.7859 42.6843L43.0904 42.6848Z" fill="#563D7C"/>
</svg>
