<svg width="80" height="80" viewBox="0 0 80 80" fill="none" xmlns="http://www.w3.org/2000/svg">
<rect width="80" height="80" rx="10" fill="#563D7C" fill-opacity="0.4"/>
<ellipse cx="39" cy="41" rx="18" ry="17" fill="white"/>
<path fill-rule="evenodd" clip-rule="evenodd" d="M21.293 15C17.6412 15 14.9391 18.1962 15.0601 21.6625C15.1761 24.9927 15.0254 29.3056 13.9395 32.8229C12.8505 36.3504 11.0085 38.5851 8 38.872V42.1109C11.0085 42.3979 12.8505 44.6325 13.9395 48.1603C15.0254 51.6773 15.1761 55.9904 15.0601 59.3205C14.9391 62.7864 17.6412 65.9829 21.2935 65.9829H58.7117C62.3637 65.9829 65.0653 62.7869 64.9443 59.3205C64.8283 55.9904 64.9789 51.6773 66.0648 48.1603C67.1544 44.6325 68.9915 42.3979 72 42.1109V38.872C68.9915 38.5851 67.1544 36.3504 66.0648 32.8229C64.9789 29.3062 64.8283 24.9927 64.9443 21.6625C65.0653 18.1967 62.3637 15 58.7117 15H21.293ZM51.3899 46.3832C51.3899 51.1563 47.8296 54.0509 41.9216 54.0509H31.8644C31.5767 54.0509 31.3008 53.9365 31.0974 53.7331C30.8939 53.5296 30.7797 53.2539 30.7797 52.9661V28.017C30.7797 27.7293 30.8939 27.4534 31.0974 27.2499C31.3008 27.0465 31.5767 26.9322 31.8644 26.9322H41.8643C46.7904 26.9322 50.0235 29.6007 50.0235 33.6978C50.0235 36.5733 47.8488 39.148 45.0776 39.5987V39.7491C48.8499 40.1629 51.3899 42.7749 51.3899 46.3832ZM40.8251 30.3709H35.0904V38.4707H39.9203C43.6539 38.4707 45.7128 36.9672 45.7128 34.2797C45.7128 31.7615 43.9424 30.3709 40.8251 30.3709ZM35.0904 41.6848V50.6112H41.036C44.9232 50.6112 46.9824 49.0512 46.9824 46.1197C46.9824 43.1877 44.8656 41.6843 40.7859 41.6843L35.0904 41.6848Z" fill="#563D7C"/>
</svg>
