<svg width="96" height="96" viewBox="0 0 96 96" fill="none" xmlns="http://www.w3.org/2000/svg">
<rect width="96" height="96" rx="10" fill="#33A9DC" fill-opacity="0.15"/>
<path d="M43.5878 79.676C43.8305 79.7973 43.9705 79.9887 44.0078 80.25C44.0545 80.5113 43.9891 80.7493 43.8118 80.964C43.6905 81.132 43.5318 81.2253 43.3358 81.244C43.1491 81.2627 42.9578 81.2253 42.7618 81.132C42.5378 81.0293 42.2998 80.95 42.0478 80.894C41.8051 80.838 41.5485 80.81 41.2778 80.81C40.7738 80.81 40.3211 80.8893 39.9198 81.048C39.5278 81.2067 39.1918 81.4353 38.9118 81.734C38.6318 82.0233 38.4171 82.3687 38.2678 82.77C38.1278 83.1713 38.0578 83.6147 38.0578 84.1C38.0578 84.6693 38.1371 85.164 38.2958 85.584C38.4638 86.004 38.6925 86.354 38.9818 86.634C39.2711 86.914 39.6118 87.124 40.0038 87.264C40.3958 87.3947 40.8205 87.46 41.2778 87.46C41.5298 87.46 41.7818 87.4367 42.0338 87.39C42.2858 87.3433 42.5285 87.2593 42.7618 87.138C42.9578 87.0447 43.1491 87.012 43.3358 87.04C43.5318 87.068 43.6951 87.166 43.8258 87.334C44.0125 87.5673 44.0778 87.81 44.0218 88.062C43.9751 88.3047 43.8351 88.482 43.6018 88.594C43.3591 88.7153 43.1071 88.818 42.8458 88.902C42.5938 88.9767 42.3371 89.0327 42.0758 89.07C41.8145 89.1167 41.5485 89.14 41.2778 89.14C40.6058 89.14 39.9665 89.0327 39.3598 88.818C38.7625 88.6033 38.2258 88.286 37.7498 87.866C37.2831 87.446 36.9145 86.9233 36.6438 86.298C36.3731 85.6633 36.2378 84.9307 36.2378 84.1C36.2378 83.3813 36.3591 82.7187 36.6018 82.112C36.8538 81.5053 37.2038 80.9827 37.6518 80.544C38.1091 80.096 38.6458 79.7507 39.2618 79.508C39.8778 79.256 40.5498 79.13 41.2778 79.13C41.6885 79.13 42.0898 79.1767 42.4818 79.27C42.8738 79.3633 43.2425 79.4987 43.5878 79.676ZM48.2352 89.14C47.5818 89.14 46.9938 89.0607 46.4712 88.902C45.9485 88.734 45.4492 88.4447 44.9732 88.034C44.8518 87.9313 44.7585 87.8147 44.6932 87.684C44.6278 87.5533 44.5952 87.4227 44.5952 87.292C44.5952 87.0773 44.6698 86.8907 44.8192 86.732C44.9778 86.564 45.1738 86.48 45.4072 86.48C45.5845 86.48 45.7432 86.536 45.8832 86.648C46.2378 86.9373 46.5878 87.1567 46.9332 87.306C47.2878 87.4553 47.7218 87.53 48.2352 87.53C48.5805 87.53 48.8978 87.4787 49.1872 87.376C49.4765 87.264 49.7098 87.1193 49.8872 86.942C50.0645 86.7553 50.1532 86.5453 50.1532 86.312C50.1532 86.032 50.0692 85.794 49.9012 85.598C49.7332 85.402 49.4765 85.2387 49.1312 85.108C48.7858 84.968 48.3472 84.8607 47.8152 84.786C47.3112 84.7113 46.8678 84.5993 46.4852 84.45C46.1025 84.2913 45.7805 84.0953 45.5192 83.862C45.2672 83.6193 45.0758 83.3393 44.9452 83.022C44.8145 82.6953 44.7492 82.3313 44.7492 81.93C44.7492 81.3233 44.9032 80.8053 45.2112 80.376C45.5285 79.9467 45.9532 79.62 46.4852 79.396C47.0172 79.172 47.6052 79.06 48.2492 79.06C48.8558 79.06 49.4158 79.1533 49.9292 79.34C50.4518 79.5173 50.8765 79.746 51.2032 80.026C51.4738 80.2407 51.6092 80.488 51.6092 80.768C51.6092 80.9733 51.5298 81.16 51.3712 81.328C51.2125 81.496 51.0258 81.58 50.8112 81.58C50.6712 81.58 50.5452 81.538 50.4332 81.454C50.2838 81.3233 50.0832 81.202 49.8312 81.09C49.5792 80.9687 49.3132 80.8707 49.0332 80.796C48.7532 80.712 48.4918 80.67 48.2492 80.67C47.8478 80.67 47.5072 80.7213 47.2272 80.824C46.9565 80.9267 46.7512 81.0667 46.6112 81.244C46.4712 81.4213 46.4012 81.6267 46.4012 81.86C46.4012 82.14 46.4805 82.3733 46.6392 82.56C46.8072 82.7373 47.0452 82.882 47.3532 82.994C47.6612 83.0967 48.0298 83.19 48.4592 83.274C49.0192 83.3767 49.5092 83.498 49.9292 83.638C50.3585 83.778 50.7132 83.96 50.9932 84.184C51.2732 84.3987 51.4832 84.674 51.6232 85.01C51.7632 85.3367 51.8332 85.738 51.8332 86.214C51.8332 86.8207 51.6652 87.3433 51.3292 87.782C50.9932 88.2207 50.5498 88.5567 49.9992 88.79C49.4578 89.0233 48.8698 89.14 48.2352 89.14ZM56.1687 89.14C55.5153 89.14 54.9273 89.0607 54.4047 88.902C53.882 88.734 53.3827 88.4447 52.9067 88.034C52.7853 87.9313 52.692 87.8147 52.6267 87.684C52.5613 87.5533 52.5287 87.4227 52.5287 87.292C52.5287 87.0773 52.6033 86.8907 52.7527 86.732C52.9113 86.564 53.1073 86.48 53.3407 86.48C53.518 86.48 53.6767 86.536 53.8167 86.648C54.1713 86.9373 54.5213 87.1567 54.8667 87.306C55.2213 87.4553 55.6553 87.53 56.1687 87.53C56.514 87.53 56.8313 87.4787 57.1207 87.376C57.41 87.264 57.6433 87.1193 57.8207 86.942C57.998 86.7553 58.0867 86.5453 58.0867 86.312C58.0867 86.032 58.0027 85.794 57.8347 85.598C57.6667 85.402 57.41 85.2387 57.0647 85.108C56.7193 84.968 56.2807 84.8607 55.7487 84.786C55.2447 84.7113 54.8013 84.5993 54.4187 84.45C54.036 84.2913 53.714 84.0953 53.4527 83.862C53.2007 83.6193 53.0093 83.3393 52.8787 83.022C52.748 82.6953 52.6827 82.3313 52.6827 81.93C52.6827 81.3233 52.8367 80.8053 53.1447 80.376C53.462 79.9467 53.8867 79.62 54.4187 79.396C54.9507 79.172 55.5387 79.06 56.1827 79.06C56.7893 79.06 57.3493 79.1533 57.8627 79.34C58.3853 79.5173 58.81 79.746 59.1367 80.026C59.4073 80.2407 59.5427 80.488 59.5427 80.768C59.5427 80.9733 59.4633 81.16 59.3047 81.328C59.146 81.496 58.9593 81.58 58.7447 81.58C58.6047 81.58 58.4787 81.538 58.3667 81.454C58.2173 81.3233 58.0167 81.202 57.7647 81.09C57.5127 80.9687 57.2467 80.8707 56.9667 80.796C56.6867 80.712 56.4253 80.67 56.1827 80.67C55.7813 80.67 55.4407 80.7213 55.1607 80.824C54.89 80.9267 54.6847 81.0667 54.5447 81.244C54.4047 81.4213 54.3347 81.6267 54.3347 81.86C54.3347 82.14 54.414 82.3733 54.5727 82.56C54.7407 82.7373 54.9787 82.882 55.2867 82.994C55.5947 83.0967 55.9633 83.19 56.3927 83.274C56.9527 83.3767 57.4427 83.498 57.8627 83.638C58.292 83.778 58.6467 83.96 58.9267 84.184C59.2067 84.3987 59.4167 84.674 59.5567 85.01C59.6967 85.3367 59.7667 85.738 59.7667 86.214C59.7667 86.8207 59.5987 87.3433 59.2627 87.782C58.9267 88.2207 58.4833 88.5567 57.9327 88.79C57.3913 89.0233 56.8033 89.14 56.1687 89.14Z" fill="white"/>
<path d="M25.0946 67.6023L20 10H76L70.8986 67.5931L47.966 74L25.0946 67.6023Z" fill="#33A9DC"/>
<path d="M48 69.104L66.5321 63.9269L70.8918 14.7109H48V69.104Z" fill="#33A9DC"/>
<path d="M48 35.5794H57.2774L57.917 28.3451H48V21.28H48.025H65.5794L65.4115 23.1749L63.6899 42.6446H48V35.5794Z" fill="white"/>
<path d="M48.0431 53.9269L48.0114 53.936L40.2038 51.8103L39.7048 46.176H35.9099H32.6663L33.6484 57.2686L48.0091 61.2869L48.0431 61.2777V53.9269Z" fill="white"/>
<path d="M56.681 42.3452L55.8372 51.8057L48.0183 53.9314V61.2823L62.3903 57.2686L62.4969 56.0754L63.715 42.3452H56.681Z" fill="white"/>
<path d="M48.0252 21.28V25.6686V28.3269V28.3451H31.1127H31.09L30.9494 26.7566L30.6295 23.1749L30.4617 21.28H48.0252Z" fill="white"/>
<path d="M47.9999 35.5794V39.968V42.6263V42.6445H40.3126H40.2899L40.1492 41.056L39.8317 37.4743L39.6638 35.5794H47.9999Z" fill="white"/>
</svg>
