<svg width="80" height="80" viewBox="0 0 80 80" fill="none" xmlns="http://www.w3.org/2000/svg">
<rect width="80" height="80" rx="10" fill="#33A9DC" fill-opacity="0.4"/>
<path d="M17.0946 65.6023L12 8H68L62.8986 65.5931L39.966 72L17.0946 65.6023Z" fill="#33A9DC"/>
<path d="M40 67.104L58.5321 61.9269L62.8918 12.7109H40V67.104Z" fill="#33A9DC"/>
<path d="M40 33.5794H49.2774L49.917 26.3451H40V19.28H40.025H57.5794L57.4115 21.1749L55.6899 40.6446H40V33.5794Z" fill="white"/>
<path d="M40.0429 51.9269L40.0111 51.936L32.2036 49.8103L31.7046 44.176H27.9097H24.666L25.6482 55.2686L40.0089 59.2869L40.0429 59.2777V51.9269Z" fill="white"/>
<path d="M48.6812 40.3451L47.8374 49.8057L40.0186 51.9314V59.2823L54.3906 55.2686L54.4972 54.0754L55.7153 40.3451H48.6812Z" fill="white"/>
<path d="M40.0254 19.28V23.6686V26.3269V26.3451H23.1129H23.0902L22.9496 24.7566L22.6298 21.1749L22.4619 19.28H40.0254Z" fill="white"/>
<path d="M40.0001 33.5794V37.968V40.6263V40.6446H32.3128H32.2901L32.1495 39.056L31.8319 35.4743L31.6641 33.5794H40.0001Z" fill="white"/>
</svg>
