<svg width="96" height="96" viewBox="0 0 96 96" fill="none" xmlns="http://www.w3.org/2000/svg">
<rect width="96" height="96" rx="10" fill="#009DDE" fill-opacity="0.15"/>
<path d="M31.4748 79.2C32.1468 79.2 32.7441 79.326 33.2668 79.578C33.7895 79.83 34.2281 80.1847 34.5828 80.642C34.9468 81.09 35.2175 81.6127 35.3948 82.21C35.5815 82.798 35.6748 83.428 35.6748 84.1C35.6748 85.0053 35.5115 85.8313 35.1848 86.578C34.8581 87.3153 34.3821 87.9033 33.7568 88.342C33.1408 88.7807 32.3801 89 31.4748 89H28.1288C27.8861 89 27.6808 88.9207 27.5128 88.762C27.3541 88.594 27.2748 88.3887 27.2748 88.146V80.054C27.2748 79.8113 27.3541 79.6107 27.5128 79.452C27.6808 79.284 27.8861 79.2 28.1288 79.2H31.4748ZM31.3348 87.39C31.9228 87.39 32.4035 87.2407 32.7768 86.942C33.1501 86.634 33.4208 86.2327 33.5888 85.738C33.7661 85.234 33.8548 84.688 33.8548 84.1C33.8548 83.6613 33.8035 83.246 33.7008 82.854C33.6075 82.4527 33.4581 82.1027 33.2528 81.804C33.0475 81.496 32.7861 81.2533 32.4688 81.076C32.1515 80.8987 31.7735 80.81 31.3348 80.81H28.8848L29.0248 80.684V87.544L28.9408 87.39H31.3348ZM37.5626 89C37.3199 89 37.1193 88.9207 36.9606 88.762C36.8019 88.594 36.7226 88.3887 36.7226 88.146V82.364C36.7226 82.1213 36.8019 81.9207 36.9606 81.762C37.1193 81.594 37.3199 81.51 37.5626 81.51C37.8053 81.51 38.0059 81.594 38.1646 81.762C38.3233 81.9207 38.4026 82.1213 38.4026 82.364V83.68L38.3046 82.742C38.4073 82.518 38.5379 82.322 38.6966 82.154C38.8646 81.9767 39.0513 81.832 39.2566 81.72C39.4619 81.5987 39.6813 81.51 39.9146 81.454C40.1479 81.398 40.3813 81.37 40.6146 81.37C40.8946 81.37 41.1279 81.4493 41.3146 81.608C41.5106 81.7667 41.6086 81.9533 41.6086 82.168C41.6086 82.476 41.5293 82.7 41.3706 82.84C41.2119 82.9707 41.0393 83.036 40.8526 83.036C40.6753 83.036 40.5119 83.0033 40.3626 82.938C40.2226 82.8727 40.0593 82.84 39.8726 82.84C39.7046 82.84 39.5319 82.882 39.3546 82.966C39.1866 83.0407 39.0279 83.162 38.8786 83.33C38.7386 83.498 38.6219 83.708 38.5286 83.96C38.4446 84.2027 38.4026 84.492 38.4026 84.828V88.146C38.4026 88.3887 38.3233 88.594 38.1646 88.762C38.0059 88.9207 37.8053 89 37.5626 89ZM47.9309 81.51C48.1736 81.51 48.3743 81.594 48.5329 81.762C48.6916 81.9207 48.7709 82.1213 48.7709 82.364V85.92C48.7709 86.9093 48.4956 87.6933 47.9449 88.272C47.3943 88.8507 46.6009 89.14 45.5649 89.14C44.5289 89.14 43.7356 88.8507 43.1849 88.272C42.6436 87.6933 42.3729 86.9093 42.3729 85.92V82.364C42.3729 82.1213 42.4523 81.9207 42.6109 81.762C42.7696 81.594 42.9703 81.51 43.2129 81.51C43.4556 81.51 43.6563 81.594 43.8149 81.762C43.9736 81.9207 44.0529 82.1213 44.0529 82.364V85.92C44.0529 86.4893 44.1789 86.914 44.4309 87.194C44.6829 87.4647 45.0609 87.6 45.5649 87.6C46.0783 87.6 46.4609 87.4647 46.7129 87.194C46.9649 86.914 47.0909 86.4893 47.0909 85.92V82.364C47.0909 82.1213 47.1703 81.9207 47.3289 81.762C47.4876 81.594 47.6883 81.51 47.9309 81.51ZM54.0477 81.37C54.7011 81.37 55.2844 81.538 55.7977 81.874C56.3204 82.2007 56.7311 82.6533 57.0297 83.232C57.3377 83.8107 57.4917 84.4827 57.4917 85.248C57.4917 86.0133 57.3377 86.69 57.0297 87.278C56.7311 87.8567 56.3251 88.314 55.8117 88.65C55.3077 88.9767 54.7384 89.14 54.1037 89.14C53.7304 89.14 53.3804 89.0793 53.0537 88.958C52.7271 88.8367 52.4377 88.6827 52.1857 88.496C51.9431 88.3093 51.7517 88.1227 51.6117 87.936C51.4811 87.74 51.4157 87.5767 51.4157 87.446L51.8497 87.264V90.946C51.8497 91.1887 51.7704 91.3893 51.6117 91.548C51.4531 91.716 51.2524 91.8 51.0097 91.8C50.7671 91.8 50.5664 91.7207 50.4077 91.562C50.2491 91.4033 50.1697 91.198 50.1697 90.946V82.364C50.1697 82.1213 50.2491 81.9207 50.4077 81.762C50.5664 81.594 50.7671 81.51 51.0097 81.51C51.2524 81.51 51.4531 81.594 51.6117 81.762C51.7704 81.9207 51.8497 82.1213 51.8497 82.364V83.05L51.6117 82.924C51.6117 82.8027 51.6771 82.658 51.8077 82.49C51.9384 82.3127 52.1157 82.14 52.3397 81.972C52.5637 81.7947 52.8204 81.65 53.1097 81.538C53.4084 81.426 53.7211 81.37 54.0477 81.37ZM53.8377 82.91C53.4271 82.91 53.0677 83.0127 52.7597 83.218C52.4517 83.4233 52.2091 83.7033 52.0317 84.058C51.8637 84.4033 51.7797 84.8 51.7797 85.248C51.7797 85.6867 51.8637 86.088 52.0317 86.452C52.2091 86.8067 52.4517 87.0867 52.7597 87.292C53.0677 87.4973 53.4271 87.6 53.8377 87.6C54.2484 87.6 54.6031 87.4973 54.9017 87.292C55.2097 87.0867 55.4477 86.8067 55.6157 86.452C55.7931 86.088 55.8817 85.6867 55.8817 85.248C55.8817 84.8 55.7931 84.4033 55.6157 84.058C55.4477 83.7033 55.2097 83.4233 54.9017 83.218C54.6031 83.0127 54.2484 82.91 53.8377 82.91ZM64.6727 81.37C64.9154 81.37 65.1161 81.4493 65.2747 81.608C65.4334 81.7667 65.5127 81.972 65.5127 82.224V88.146C65.5127 88.3887 65.4334 88.594 65.2747 88.762C65.1161 88.9207 64.9154 89 64.6727 89C64.4301 89 64.2294 88.9207 64.0707 88.762C63.9121 88.594 63.8327 88.3887 63.8327 88.146V87.46L64.1407 87.586C64.1407 87.7073 64.0754 87.8567 63.9447 88.034C63.8141 88.202 63.6367 88.37 63.4127 88.538C63.1887 88.706 62.9227 88.8507 62.6147 88.972C62.3161 89.084 61.9894 89.14 61.6347 89.14C60.9907 89.14 60.4074 88.9767 59.8847 88.65C59.3621 88.314 58.9467 87.8567 58.6387 87.278C58.3401 86.69 58.1907 86.018 58.1907 85.262C58.1907 84.4967 58.3401 83.8247 58.6387 83.246C58.9467 82.658 59.3574 82.2007 59.8707 81.874C60.3841 81.538 60.9534 81.37 61.5787 81.37C61.9801 81.37 62.3487 81.4307 62.6847 81.552C63.0207 81.6733 63.3101 81.8273 63.5527 82.014C63.8047 82.2007 63.9961 82.392 64.1267 82.588C64.2667 82.7747 64.3367 82.9333 64.3367 83.064L63.8327 83.246V82.224C63.8327 81.9813 63.9121 81.7807 64.0707 81.622C64.2294 81.454 64.4301 81.37 64.6727 81.37ZM61.8447 87.6C62.2554 87.6 62.6147 87.4973 62.9227 87.292C63.2307 87.0867 63.4687 86.8067 63.6367 86.452C63.8141 86.0973 63.9027 85.7007 63.9027 85.262C63.9027 84.814 63.8141 84.4127 63.6367 84.058C63.4687 83.7033 63.2307 83.4233 62.9227 83.218C62.6147 83.0127 62.2554 82.91 61.8447 82.91C61.4434 82.91 61.0887 83.0127 60.7807 83.218C60.4727 83.4233 60.2301 83.7033 60.0527 84.058C59.8847 84.4127 59.8007 84.814 59.8007 85.262C59.8007 85.7007 59.8847 86.0973 60.0527 86.452C60.2301 86.8067 60.4727 87.0867 60.7807 87.292C61.0887 87.4973 61.4434 87.6 61.8447 87.6ZM68.7318 88.146C68.7318 88.3887 68.6478 88.594 68.4798 88.762C68.3211 88.9207 68.1204 89 67.8778 89C67.6444 89 67.4484 88.9207 67.2898 88.762C67.1311 88.594 67.0518 88.3887 67.0518 88.146V79.494C67.0518 79.2513 67.1311 79.0507 67.2898 78.892C67.4578 78.724 67.6631 78.64 67.9058 78.64C68.1484 78.64 68.3444 78.724 68.4938 78.892C68.6524 79.0507 68.7318 79.2513 68.7318 79.494V88.146Z" fill="white"/>
<path d="M48.0119 9C65.6805 9.00594 80 23.3314 80 41V41.0119C79.9941 58.6834 65.6626 73.0059 47.9881 73C30.3166 72.9941 15.9941 58.6597 16 40.9881C16.0059 23.3166 30.3374 8.99407 48.0119 9ZM47.8486 17.2301C46.9698 20.5554 44.0067 23.5096 40.9041 26.6122C36.2635 31.2646 30.9876 36.5287 30.9876 44.4351C30.9994 53.7341 38.5289 61.2724 47.8278 61.2962C57.1446 61.2962 64.7007 53.7489 64.7096 44.4351C64.7096 36.5287 59.4485 31.2676 54.7931 26.6122L54.3773 26.1963C51.4291 23.2445 48.6852 20.4093 47.8486 17.2301ZM48.0772 42.4786C50.013 44.542 51.2422 45.9642 52.5159 47.517C52.6109 47.6328 52.697 47.7575 52.7742 47.8911C54.3329 50.1386 54.1221 53.167 52.2665 55.1741C50.0813 57.5404 46.3938 57.6858 44.0275 55.5007C41.6612 53.3155 41.5157 49.6279 43.7009 47.2616C44.9419 45.795 46.4413 44.352 48.0772 42.4786ZM40.3726 34.7413L41.1861 35.5103L44.9627 39.373C45.1052 39.5363 45.1052 39.7768 44.9627 39.9401L41.0139 44.3045L39.6333 45.985C39.1078 46.6263 38.6625 47.324 38.3062 48.0722C38.2557 48.1969 38.1488 48.2889 38.0182 48.3186H37.8786C37.4956 48.286 37.0562 47.5793 37.0562 47.5793L36.9864 47.4735C36.8952 47.3314 36.8116 47.185 36.7356 47.033L36.6614 46.8727C36.121 45.115 36.0794 43.2416 36.5337 41.4602L36.5848 41.275C37.0041 39.7962 37.6658 38.3939 38.5437 37.1284C39.1078 36.2971 39.7194 35.5014 40.3726 34.7413ZM47.8723 26.9328C48.8788 28.0759 50.013 29.2219 51.0818 30.2908L51.1056 30.365C53.3413 32.4463 55.3602 34.7473 57.1386 37.2323C58.6469 39.3522 59.4723 41.8818 59.5019 44.4856C59.5019 45.6109 59.3327 46.7272 59.0002 47.802L58.9837 47.8463C58.8942 48.0642 58.6996 48.2232 58.4658 48.2622H58.3589C58.1273 48.188 57.9343 48.0336 57.8126 47.8228L57.6335 47.554C56.6708 46.1258 55.5853 44.7851 54.3893 43.5444L52.8484 41.9174L47.712 36.5673C46.8451 35.733 45.2952 34.2366 44.6421 33.4231C44.6213 33.3786 44.5975 33.337 44.5678 33.2954C44.3897 33.052 44.2531 32.7818 44.1611 32.4938V32.3335C44.072 31.8109 44.1433 31.2735 44.363 30.7925C44.5055 30.4867 44.7014 30.2076 44.9419 29.9701C45.9365 28.9755 46.9312 28.0017 47.8723 26.9328Z" fill="#009DDE"/>
</svg>
