<svg width="80" height="80" viewBox="0 0 80 80" fill="none" xmlns="http://www.w3.org/2000/svg">
<rect width="80" height="80" rx="10" fill="#009DDE" fill-opacity="0.4"/>
<ellipse cx="41" cy="40.5" rx="25" ry="25.5" fill="white"/>
<path d="M40.0119 8C57.6805 8.00594 72 22.3314 72 40V40.0119C71.9941 57.6834 57.6626 72.0059 39.9881 72C22.3166 71.9941 7.99407 57.6597 8 39.9881C8.00594 22.3166 22.3374 7.99407 40.0119 8ZM39.8486 16.2301C38.9698 19.5554 36.0067 22.5096 32.9041 25.6122C28.2635 30.2646 22.9876 35.5287 22.9876 43.4351C22.9994 52.7341 30.5289 60.2724 39.8278 60.2962C49.1446 60.2962 56.7007 52.7489 56.7096 43.4351C56.7096 35.5287 51.4485 30.2676 46.7931 25.6122L46.3773 25.1963C43.4291 22.2445 40.6852 19.4093 39.8486 16.2301ZM40.0772 41.4786C42.013 43.542 43.2422 44.9642 44.5159 46.517C44.6109 46.6328 44.697 46.7575 44.7742 46.8911C46.3329 49.1386 46.1221 52.167 44.2665 54.1741C42.0813 56.5404 38.3938 56.6858 36.0275 54.5007C33.6612 52.3155 33.5157 48.6279 35.7009 46.2616C36.9419 44.795 38.4413 43.352 40.0772 41.4786ZM32.3726 33.7413L33.1861 34.5103L36.9627 38.373C37.1052 38.5363 37.1052 38.7768 36.9627 38.9401L33.0139 43.3045L31.6333 44.985C31.1078 45.6263 30.6625 46.324 30.3062 47.0722C30.2557 47.1969 30.1488 47.2889 30.0182 47.3186H29.8786C29.4956 47.286 29.0562 46.5793 29.0562 46.5793L28.9864 46.4735C28.8952 46.3314 28.8116 46.185 28.7356 46.033L28.6614 45.8727C28.121 44.115 28.0794 42.2416 28.5337 40.4602L28.5848 40.275C29.0041 38.7962 29.6658 37.3939 30.5437 36.1284C31.1078 35.2971 31.7194 34.5014 32.3726 33.7413ZM39.8723 25.9328C40.8788 27.0759 42.013 28.2219 43.0818 29.2908L43.1056 29.365C45.3413 31.4463 47.3602 33.7473 49.1386 36.2323C50.6469 38.3522 51.4723 40.8818 51.5019 43.4856C51.5019 44.6109 51.3327 45.7272 51.0002 46.802L50.9837 46.8463C50.8942 47.0642 50.6996 47.2232 50.4658 47.2622H50.3589C50.1273 47.188 49.9343 47.0336 49.8126 46.8228L49.6335 46.554C48.6708 45.1258 47.5853 43.7851 46.3893 42.5444L44.8484 40.9174L39.712 35.5673C38.8451 34.733 37.2952 33.2366 36.6421 32.4231C36.6213 32.3786 36.5975 32.337 36.5678 32.2954C36.3897 32.052 36.2531 31.7818 36.1611 31.4938V31.3335C36.072 30.8109 36.1433 30.2735 36.363 29.7925C36.5055 29.4867 36.7014 29.2076 36.9419 28.9701C37.9365 27.9755 38.9312 27.0017 39.8723 25.9328Z" fill="#009DDE"/>
</svg>
