<svg width="96" height="96" viewBox="0 0 96 96" fill="none" xmlns="http://www.w3.org/2000/svg">
<rect width="96" height="96" rx="10" fill="#F16529" fill-opacity="0.15"/>
<path d="M31.4969 79.2C31.7209 79.2 31.9169 79.284 32.0849 79.452C32.2622 79.6107 32.3509 79.8113 32.3509 80.054V88.146C32.3509 88.3887 32.2622 88.594 32.0849 88.762C31.9076 88.9207 31.7022 89 31.4689 89C31.2076 89 30.9976 88.9207 30.8389 88.762C30.6802 88.594 30.6009 88.3887 30.6009 88.146V80.054C30.6009 79.8113 30.6849 79.6107 30.8529 79.452C31.0209 79.284 31.2356 79.2 31.4969 79.2ZM37.6989 79.2C37.9602 79.2 38.1702 79.284 38.3289 79.452C38.4876 79.6107 38.5669 79.8113 38.5669 80.054V88.146C38.5669 88.3887 38.4829 88.594 38.3149 88.762C38.1562 88.9207 37.9416 89 37.6709 89C37.4469 89 37.2462 88.9207 37.0689 88.762C36.9009 88.594 36.8169 88.3887 36.8169 88.146V80.054C36.8169 79.8113 36.9056 79.6107 37.0829 79.452C37.2602 79.284 37.4656 79.2 37.6989 79.2ZM31.4549 83.274H37.6989V84.884H31.4549V83.274ZM43.5614 89C43.3001 89 43.0854 88.9207 42.9174 88.762C42.7494 88.594 42.6654 88.3887 42.6654 88.146V80.026H44.4854V88.146C44.4854 88.3887 44.3967 88.594 44.2194 88.762C44.0514 88.9207 43.8321 89 43.5614 89ZM40.4674 80.81C40.2247 80.81 40.0194 80.7353 39.8514 80.586C39.6927 80.4367 39.6134 80.2407 39.6134 79.998C39.6134 79.7553 39.6927 79.564 39.8514 79.424C40.0194 79.2747 40.2247 79.2 40.4674 79.2H46.6834C46.9261 79.2 47.1267 79.2747 47.2854 79.424C47.4534 79.5733 47.5374 79.7693 47.5374 80.012C47.5374 80.2547 47.4534 80.4507 47.2854 80.6C47.1267 80.74 46.9261 80.81 46.6834 80.81H40.4674ZM49.4691 79.186C49.5997 79.186 49.7351 79.2233 49.8751 79.298C50.0244 79.3633 50.1364 79.452 50.2111 79.564L53.6131 84.8L52.9131 84.772L56.3991 79.564C56.5764 79.312 56.8051 79.186 57.0851 79.186C57.3091 79.186 57.5097 79.2653 57.6871 79.424C57.8644 79.5827 57.9531 79.788 57.9531 80.04V88.146C57.9531 88.3887 57.8737 88.594 57.7151 88.762C57.5564 88.9207 57.3464 89 57.0851 89C56.8237 89 56.6091 88.9207 56.4411 88.762C56.2824 88.594 56.2031 88.3887 56.2031 88.146V81.552L56.7491 81.678L53.8931 86.032C53.8091 86.1347 53.7017 86.2233 53.5711 86.298C53.4497 86.3727 53.3237 86.4053 53.1931 86.396C53.0717 86.4053 52.9457 86.3727 52.8151 86.298C52.6937 86.2233 52.5911 86.1347 52.5071 86.032L49.8331 81.804L50.1971 81.062V88.146C50.1971 88.3887 50.1224 88.594 49.9731 88.762C49.8237 88.9207 49.6277 89 49.3851 89C49.1517 89 48.9604 88.9207 48.8111 88.762C48.6617 88.594 48.5871 88.3887 48.5871 88.146V80.04C48.5871 79.8067 48.6711 79.606 48.8391 79.438C49.0164 79.27 49.2264 79.186 49.4691 79.186ZM65.0418 87.362C65.2844 87.362 65.4851 87.4413 65.6438 87.6C65.8118 87.7493 65.8958 87.9453 65.8958 88.188C65.8958 88.4213 65.8118 88.6173 65.6438 88.776C65.4851 88.9253 65.2844 89 65.0418 89H60.4918C60.2491 89 60.0438 88.9207 59.8758 88.762C59.7171 88.594 59.6378 88.3887 59.6378 88.146V80.054C59.6378 79.8113 59.7218 79.6107 59.8898 79.452C60.0578 79.284 60.2724 79.2 60.5338 79.2C60.7578 79.2 60.9538 79.284 61.1218 79.452C61.2991 79.6107 61.3878 79.8113 61.3878 80.054V87.6L61.0798 87.362H65.0418Z" fill="white"/>
<path d="M24.6667 66.1429L20 9H76L71.3333 66.1429L48 73L24.6667 66.1429Z" fill="#F16529"/>
<path d="M71.3333 13.5714H48V69.5714L66.6667 63.8572L71.3333 13.5714Z" fill="#F16529"/>
<path d="M32.8333 42.1428L30.5 20.4286H66.6667L65.5 27.2857H37.5L38.6667 35.2857H64.3333L62 57L48 61.5714L34 57L32.8333 45.5714H39.8333L41 51.2857L48 53.5714L55 51.2857L56.1667 42.1428H32.8333Z" fill="white"/>
</svg>
