<svg width="80" height="80" viewBox="0 0 80 80" fill="none" xmlns="http://www.w3.org/2000/svg">
<rect width="80" height="80" rx="10" fill="#3880FF" fill-opacity="0.4"/>
<path d="M40.0379 8.0003C45.2322 8.0003 50.1232 9.21387 54.7109 11.5646L55.3175 11.8679L54.7867 12.285C53.4976 13.3087 52.4739 14.6357 51.8294 16.1523L51.6398 16.5693L51.2607 16.3797C47.7346 14.7115 43.981 13.8395 40.0758 13.8395C25.6303 13.8395 13.9147 25.593 13.9147 40.0006C13.9147 54.4082 25.5924 66.1617 40.0379 66.1617C54.4834 66.1617 66.1991 54.4082 66.1991 40.0006C66.1991 36.5504 65.5545 33.1759 64.1896 29.9911L64 29.5741L64.4171 29.3845C65.9716 28.8158 67.3365 27.8679 68.436 26.6546L68.8531 26.1238L69.1185 26.7305C71.0521 30.939 72 35.4129 72 39.9248C72 57.5551 57.6303 71.9248 40 71.9248C22.3697 71.9248 8 57.5551 8 39.9248C8 22.2944 22.3697 7.92477 40.0379 8.0003ZM40.0379 25.4414C48.0379 25.4414 54.5972 31.9627 54.6351 40.0385C54.6351 48.1143 48.1137 54.6357 40.0379 54.6357C31.9621 54.6357 25.4408 48.1143 25.4408 40.0385C25.4408 31.9627 32 25.4414 40.0379 25.4414ZM60.9289 13.3845C64.6143 13.3845 67.6019 16.3721 67.6019 20.0575C67.6019 23.7429 64.6143 26.7305 60.9289 26.7305C57.2435 26.7305 54.2559 23.7429 54.2559 20.0575C54.2559 16.3721 57.2435 13.3845 60.9289 13.3845Z" fill="#3880FF"/>
</svg>
