<svg width="96" height="96" viewBox="0 0 96 96" fill="none" xmlns="http://www.w3.org/2000/svg">
<rect width="96" height="96" rx="10" fill="#3880FF" fill-opacity="0.15"/>
<path d="M35.8832 88.146C35.8832 88.3887 35.7945 88.594 35.6172 88.762C35.4398 88.9207 35.2345 89 35.0012 89C34.7398 89 34.5298 88.9207 34.3712 88.762C34.2125 88.594 34.1332 88.3887 34.1332 88.146V80.054C34.1332 79.8113 34.2172 79.6107 34.3852 79.452C34.5532 79.284 34.7678 79.2 35.0292 79.2C35.2532 79.2 35.4492 79.284 35.6172 79.452C35.7945 79.6107 35.8832 79.8113 35.8832 80.054V88.146ZM44.6946 85.262C44.6946 86.0273 44.522 86.704 44.1766 87.292C43.8406 87.8707 43.3833 88.3233 42.8046 88.65C42.2353 88.9767 41.596 89.14 40.8866 89.14C40.1773 89.14 39.5333 88.9767 38.9546 88.65C38.3853 88.3233 37.928 87.8707 37.5826 87.292C37.2466 86.704 37.0786 86.0273 37.0786 85.262C37.0786 84.4967 37.2466 83.8247 37.5826 83.246C37.928 82.658 38.3853 82.2007 38.9546 81.874C39.5333 81.538 40.1773 81.37 40.8866 81.37C41.596 81.37 42.2353 81.538 42.8046 81.874C43.3833 82.2007 43.8406 82.658 44.1766 83.246C44.522 83.8247 44.6946 84.4967 44.6946 85.262ZM43.0146 85.262C43.0146 84.786 42.9166 84.3753 42.7206 84.03C42.534 83.6753 42.2773 83.4 41.9506 83.204C41.6333 83.008 41.2786 82.91 40.8866 82.91C40.4946 82.91 40.1353 83.008 39.8086 83.204C39.4913 83.4 39.2346 83.6753 39.0386 84.03C38.852 84.3753 38.7586 84.786 38.7586 85.262C38.7586 85.7287 38.852 86.1393 39.0386 86.494C39.2346 86.8393 39.4913 87.11 39.8086 87.306C40.1353 87.502 40.4946 87.6 40.8866 87.6C41.2786 87.6 41.6333 87.502 41.9506 87.306C42.2773 87.11 42.534 86.8393 42.7206 86.494C42.9166 86.1393 43.0146 85.7287 43.0146 85.262ZM49.749 81.37C50.4396 81.37 50.9623 81.5147 51.317 81.804C51.681 82.0933 51.9283 82.4807 52.059 82.966C52.199 83.442 52.269 83.974 52.269 84.562V88.146C52.269 88.3887 52.1896 88.594 52.031 88.762C51.8723 88.9207 51.6716 89 51.429 89C51.1863 89 50.9856 88.9207 50.827 88.762C50.6683 88.594 50.589 88.3887 50.589 88.146V84.562C50.589 84.254 50.547 83.9787 50.463 83.736C50.3883 83.484 50.2483 83.2833 50.043 83.134C49.8376 82.9847 49.5436 82.91 49.161 82.91C48.7876 82.91 48.4703 82.9847 48.209 83.134C47.957 83.2833 47.761 83.484 47.621 83.736C47.4903 83.9787 47.425 84.254 47.425 84.562V88.146C47.425 88.3887 47.3456 88.594 47.187 88.762C47.0283 88.9207 46.8276 89 46.585 89C46.3423 89 46.1416 88.9207 45.983 88.762C45.8243 88.594 45.745 88.3887 45.745 88.146V82.364C45.745 82.1213 45.8243 81.9207 45.983 81.762C46.1416 81.594 46.3423 81.51 46.585 81.51C46.8276 81.51 47.0283 81.594 47.187 81.762C47.3456 81.9207 47.425 82.1213 47.425 82.364V82.966L47.215 82.924C47.299 82.7653 47.4203 82.5973 47.579 82.42C47.7376 82.2333 47.9243 82.0607 48.139 81.902C48.3536 81.7433 48.5963 81.6173 48.867 81.524C49.1376 81.4213 49.4316 81.37 49.749 81.37ZM55.2468 88.146C55.2468 88.3887 55.1675 88.594 55.0088 88.762C54.8501 88.9207 54.6495 89 54.4068 89C54.1641 89 53.9635 88.9207 53.8048 88.762C53.6461 88.594 53.5668 88.3887 53.5668 88.146V82.364C53.5668 82.1213 53.6461 81.9207 53.8048 81.762C53.9635 81.594 54.1641 81.51 54.4068 81.51C54.6495 81.51 54.8501 81.594 55.0088 81.762C55.1675 81.9207 55.2468 82.1213 55.2468 82.364V88.146ZM54.3928 80.6C54.0755 80.6 53.8515 80.5487 53.7208 80.446C53.5901 80.3433 53.5248 80.1613 53.5248 79.9V79.634C53.5248 79.3633 53.5948 79.1813 53.7348 79.088C53.8841 78.9853 54.1081 78.934 54.4068 78.934C54.7335 78.934 54.9621 78.9853 55.0928 79.088C55.2235 79.1907 55.2888 79.3727 55.2888 79.634V79.9C55.2888 80.1707 55.2188 80.3573 55.0788 80.46C54.9388 80.5533 54.7101 80.6 54.3928 80.6ZM59.8854 81.37C60.4174 81.37 60.8794 81.426 61.2714 81.538C61.6727 81.65 61.9807 81.8087 62.1954 82.014C62.4194 82.21 62.5314 82.448 62.5314 82.728C62.5314 82.9147 62.4754 83.092 62.3634 83.26C62.2514 83.4187 62.0881 83.498 61.8734 83.498C61.7241 83.498 61.5981 83.4793 61.4954 83.442C61.4021 83.3953 61.3181 83.3393 61.2434 83.274C61.1687 83.2087 61.0801 83.148 60.9774 83.092C60.8841 83.036 60.7394 82.994 60.5434 82.966C60.3567 82.9287 60.2167 82.91 60.1234 82.91C59.6474 82.91 59.2414 83.0127 58.9054 83.218C58.5787 83.4233 58.3267 83.7033 58.1494 84.058C57.9721 84.4033 57.8834 84.8047 57.8834 85.262C57.8834 85.71 57.9721 86.1113 58.1494 86.466C58.3361 86.8113 58.5881 87.0867 58.9054 87.292C59.2321 87.4973 59.6054 87.6 60.0254 87.6C60.2587 87.6 60.4594 87.586 60.6274 87.558C60.7954 87.53 60.9354 87.488 61.0474 87.432C61.1781 87.3573 61.2947 87.278 61.3974 87.194C61.5001 87.11 61.6541 87.068 61.8594 87.068C62.1021 87.068 62.2887 87.1473 62.4194 87.306C62.5501 87.4553 62.6154 87.642 62.6154 87.866C62.6154 88.0993 62.4847 88.314 62.2234 88.51C61.9621 88.6967 61.6167 88.8507 61.1874 88.972C60.7674 89.084 60.3101 89.14 59.8154 89.14C59.0781 89.14 58.4387 88.972 57.8974 88.636C57.3561 88.2907 56.9361 87.824 56.6374 87.236C56.3481 86.648 56.2034 85.99 56.2034 85.262C56.2034 84.4967 56.3574 83.8247 56.6654 83.246C56.9827 82.658 57.4167 82.2007 57.9674 81.874C58.5274 81.538 59.1667 81.37 59.8854 81.37Z" fill="white"/>
<path d="M48.0379 9.0003C53.2322 9.0003 58.1232 10.2139 62.7109 12.5646L63.3175 12.8679L62.7867 13.285C61.4976 14.3087 60.4739 15.6357 59.8294 17.1523L59.6398 17.5693L59.2607 17.3797C55.7346 15.7115 51.981 14.8395 48.0758 14.8395C33.6303 14.8395 21.9147 26.593 21.9147 41.0006C21.9147 55.4082 33.5924 67.1617 48.0379 67.1617C62.4834 67.1617 74.1991 55.4082 74.1991 41.0006C74.1991 37.5504 73.5545 34.1759 72.1896 30.9911L72 30.5741L72.4171 30.3845C73.9716 29.8158 75.3365 28.8679 76.436 27.6546L76.8531 27.1238L77.1185 27.7305C79.0521 31.939 80 36.4129 80 40.9248C80 58.5551 65.6303 72.9248 48 72.9248C30.3697 72.9248 16 58.5551 16 40.9248C16 23.2944 30.3697 8.92477 48.0379 9.0003ZM48.0379 26.4414C56.0379 26.4414 62.5972 32.9627 62.6351 41.0385C62.6351 49.1143 56.1137 55.6357 48.0379 55.6357C39.9621 55.6357 33.4408 49.1143 33.4408 41.0385C33.4408 32.9627 40 26.4414 48.0379 26.4414ZM68.9289 14.3845C72.6143 14.3845 75.6019 17.3721 75.6019 21.0575C75.6019 24.7429 72.6143 27.7305 68.9289 27.7305C65.2435 27.7305 62.2559 24.7429 62.2559 21.0575C62.2559 17.3721 65.2435 14.3845 68.9289 14.3845Z" fill="#3880FF"/>
</svg>
