<svg width="80" height="80" viewBox="0 0 80 80" fill="none" xmlns="http://www.w3.org/2000/svg">
<rect width="80" height="80" rx="10" fill="#F0DB4F" fill-opacity="0.4"/>
<path d="M72 8H8V72H72V8Z" fill="#F7DF1E"/>
<path d="M8.25 8.25H71.75V71.75H8.25V8.25Z" stroke="black" stroke-opacity="0.8" stroke-width="0.5"/>
<path d="M46.8569 61.2295L51.5689 58.1113C51.9383 59.2715 54.2768 62.027 57.2306 62.027C60.1845 62.027 61.5559 60.4137 61.5559 59.344C61.5559 56.4292 58.5397 55.4016 57.091 54.9081C56.8546 54.8277 56.6604 54.7614 56.5273 54.7035C56.459 54.6738 56.3559 54.6343 56.2236 54.5838C54.6124 53.9682 48.6679 51.6971 48.6679 45.1138C48.6679 37.8629 55.6656 37.029 57.2482 37.029C58.2834 37.029 63.2613 37.1559 65.7404 41.8146L61.1689 45.0053C60.1669 42.9749 58.5017 42.3042 57.4768 42.3042C54.9449 42.3042 54.4174 44.1602 54.4174 45.0053C54.4174 47.376 57.1682 48.4386 59.4908 49.3358C60.0985 49.5705 60.6768 49.7938 61.1689 50.0265C63.7008 51.2229 67.4284 53.1808 67.4284 59.344C67.4284 62.4311 64.8391 67.429 58.3207 67.429C49.5646 67.429 47.2437 62.1721 46.8569 61.2295Z" fill="black"/>
<path d="M57.1716 54.6715L57.1716 54.6714C56.9309 54.5895 56.7484 54.527 56.627 54.4743C56.5522 54.4418 56.4429 54.3999 56.3128 54.3502C54.6868 53.729 48.9179 51.5111 48.9179 45.1138C48.9179 41.5891 50.6092 39.6454 52.4888 38.5693C54.3858 37.4832 56.4835 37.279 57.2482 37.279C58.2618 37.279 62.9736 37.4059 65.4134 41.738L61.2591 44.6375C60.205 42.7215 58.5523 42.0542 57.4768 42.0542C56.1416 42.0542 55.3013 42.5478 54.8012 43.1832C54.3102 43.807 54.1674 44.5409 54.1674 45.0053C54.1674 46.3064 54.9288 47.2311 55.9412 47.9289C56.9436 48.6199 58.2345 49.1185 59.3849 49.5629L59.4007 49.569L59.4007 49.569C60.0108 49.8046 60.5799 50.0245 61.0621 50.2525L61.0621 50.2525C62.3259 50.8497 63.8492 51.6204 65.061 52.9884C66.2657 54.3486 67.1784 56.3186 67.1784 59.344C67.1784 62.3201 64.6754 67.179 58.3207 67.179C53.997 67.179 51.2853 65.8828 49.6101 64.4905C48.1179 63.2503 47.4328 61.9212 47.1684 61.3231L51.4514 58.4888C51.749 59.1205 52.3978 59.9685 53.2705 60.6962C54.2978 61.5528 55.6757 62.277 57.2306 62.277C60.2526 62.277 61.8059 60.6126 61.8059 59.344C61.8059 57.7837 60.9925 56.7307 60.0141 56.0162C59.0481 55.3107 57.9022 54.9203 57.1808 54.6746L57.1716 54.6715Z" stroke="black" stroke-opacity="0.8" stroke-width="0.5"/>
<path d="M24 61.8485L28.9113 58.7321C29.296 59.8916 30.7915 62.0297 32.9611 62.0297C35.131 62.0297 36.2416 59.8011 36.2416 58.7321V37.7147H42.2816V58.7321C42.3794 61.6311 40.7717 67.429 33.6759 67.429C27.152 67.429 24.4398 63.5518 24 61.8485Z" fill="black"/>
<path d="M24.2927 61.9588L28.7869 59.1072C29.0335 59.6859 29.4802 60.3947 30.0919 60.9943C30.8143 61.7024 31.7899 62.2797 32.9611 62.2797C34.1412 62.2797 35.0276 61.6712 35.6108 60.9373C36.1877 60.2113 36.4916 59.3336 36.4916 58.7321V37.9647H42.0316V58.7321H42.0315L42.0317 58.7405C42.0793 60.1486 41.7106 62.2659 40.472 64.0237C39.243 65.7678 37.144 67.179 33.6759 67.179C27.4851 67.179 24.838 63.6348 24.2927 61.9588Z" stroke="black" stroke-opacity="0.8" stroke-width="0.5"/>
</svg>
