<svg width="96" height="96" viewBox="0 0 96 96" fill="none" xmlns="http://www.w3.org/2000/svg">
<rect width="96" height="96" rx="10" fill="#F0DB4F" fill-opacity="0.14902"/>
<path d="M16.971 89.14C16.439 89.14 15.9444 89.0327 15.487 88.818C15.0297 88.6033 14.6564 88.2953 14.367 87.894C14.255 87.726 14.199 87.5627 14.199 87.404C14.199 87.1707 14.2877 86.9747 14.465 86.816C14.6517 86.6573 14.8337 86.578 15.011 86.578C15.151 86.578 15.2864 86.62 15.417 86.704C15.557 86.788 15.683 86.886 15.795 86.998C15.9817 87.166 16.1637 87.2873 16.341 87.362C16.5277 87.4273 16.7377 87.46 16.971 87.46C17.251 87.46 17.5124 87.39 17.755 87.25C17.9977 87.11 18.1937 86.9233 18.343 86.69C18.4924 86.4567 18.567 86.2047 18.567 85.934V80.054C18.567 79.8113 18.6557 79.6107 18.833 79.452C19.0104 79.284 19.2157 79.2 19.449 79.2C19.7104 79.2 19.9204 79.284 20.079 79.452C20.2377 79.6107 20.317 79.8113 20.317 80.054V85.934C20.317 86.5033 20.1677 87.0307 19.869 87.516C19.5704 88.0013 19.169 88.3933 18.665 88.692C18.161 88.9907 17.5964 89.14 16.971 89.14ZM27.9856 81.37C28.2283 81.37 28.429 81.4493 28.5876 81.608C28.7463 81.7667 28.8256 81.972 28.8256 82.224V88.146C28.8256 88.3887 28.7463 88.594 28.5876 88.762C28.429 88.9207 28.2283 89 27.9856 89C27.743 89 27.5423 88.9207 27.3836 88.762C27.225 88.594 27.1456 88.3887 27.1456 88.146V87.46L27.4536 87.586C27.4536 87.7073 27.3883 87.8567 27.2576 88.034C27.127 88.202 26.9496 88.37 26.7256 88.538C26.5016 88.706 26.2356 88.8507 25.9276 88.972C25.629 89.084 25.3023 89.14 24.9476 89.14C24.3036 89.14 23.7203 88.9767 23.1976 88.65C22.675 88.314 22.2596 87.8567 21.9516 87.278C21.653 86.69 21.5036 86.018 21.5036 85.262C21.5036 84.4967 21.653 83.8247 21.9516 83.246C22.2596 82.658 22.6703 82.2007 23.1836 81.874C23.697 81.538 24.2663 81.37 24.8916 81.37C25.293 81.37 25.6616 81.4307 25.9976 81.552C26.3336 81.6733 26.623 81.8273 26.8656 82.014C27.1176 82.2007 27.309 82.392 27.4396 82.588C27.5796 82.7747 27.6496 82.9333 27.6496 83.064L27.1456 83.246V82.224C27.1456 81.9813 27.225 81.7807 27.3836 81.622C27.5423 81.454 27.743 81.37 27.9856 81.37ZM25.1576 87.6C25.5683 87.6 25.9276 87.4973 26.2356 87.292C26.5436 87.0867 26.7816 86.8067 26.9496 86.452C27.127 86.0973 27.2156 85.7007 27.2156 85.262C27.2156 84.814 27.127 84.4127 26.9496 84.058C26.7816 83.7033 26.5436 83.4233 26.2356 83.218C25.9276 83.0127 25.5683 82.91 25.1576 82.91C24.7563 82.91 24.4016 83.0127 24.0936 83.218C23.7856 83.4233 23.543 83.7033 23.3656 84.058C23.1976 84.4127 23.1136 84.814 23.1136 85.262C23.1136 85.7007 23.1976 86.0973 23.3656 86.452C23.543 86.8067 23.7856 87.0867 24.0936 87.292C24.4016 87.4973 24.7563 87.6 25.1576 87.6ZM30.3966 81.51C30.5739 81.51 30.7373 81.5567 30.8866 81.65C31.0359 81.734 31.1479 81.8647 31.2226 82.042L33.2806 86.746L32.9726 86.886L35.0726 82.056C35.2313 81.6827 35.4786 81.5053 35.8146 81.524C36.0479 81.524 36.2346 81.5987 36.3746 81.748C36.5239 81.888 36.5986 82.0653 36.5986 82.28C36.5986 82.3453 36.5846 82.4153 36.5566 82.49C36.5379 82.5647 36.5146 82.6347 36.4866 82.7L33.8686 88.468C33.7193 88.804 33.4813 88.9813 33.1546 89C32.9773 89.028 32.8046 88.9953 32.6366 88.902C32.4779 88.8087 32.3566 88.664 32.2726 88.468L29.6686 82.7C29.6499 82.6533 29.6266 82.5927 29.5986 82.518C29.5799 82.4433 29.5706 82.3547 29.5706 82.252C29.5706 82.084 29.6453 81.9207 29.7946 81.762C29.9439 81.594 30.1446 81.51 30.3966 81.51ZM43.6066 81.37C43.8492 81.37 44.0499 81.4493 44.2086 81.608C44.3672 81.7667 44.4466 81.972 44.4466 82.224V88.146C44.4466 88.3887 44.3672 88.594 44.2086 88.762C44.0499 88.9207 43.8492 89 43.6066 89C43.3639 89 43.1632 88.9207 43.0046 88.762C42.8459 88.594 42.7666 88.3887 42.7666 88.146V87.46L43.0746 87.586C43.0746 87.7073 43.0092 87.8567 42.8786 88.034C42.7479 88.202 42.5706 88.37 42.3466 88.538C42.1226 88.706 41.8566 88.8507 41.5486 88.972C41.2499 89.084 40.9232 89.14 40.5686 89.14C39.9246 89.14 39.3412 88.9767 38.8186 88.65C38.2959 88.314 37.8806 87.8567 37.5726 87.278C37.2739 86.69 37.1246 86.018 37.1246 85.262C37.1246 84.4967 37.2739 83.8247 37.5726 83.246C37.8806 82.658 38.2912 82.2007 38.8046 81.874C39.3179 81.538 39.8872 81.37 40.5126 81.37C40.9139 81.37 41.2826 81.4307 41.6186 81.552C41.9546 81.6733 42.2439 81.8273 42.4866 82.014C42.7386 82.2007 42.9299 82.392 43.0606 82.588C43.2006 82.7747 43.2706 82.9333 43.2706 83.064L42.7666 83.246V82.224C42.7666 81.9813 42.8459 81.7807 43.0046 81.622C43.1632 81.454 43.3639 81.37 43.6066 81.37ZM40.7786 87.6C41.1892 87.6 41.5486 87.4973 41.8566 87.292C42.1646 87.0867 42.4026 86.8067 42.5706 86.452C42.7479 86.0973 42.8366 85.7007 42.8366 85.262C42.8366 84.814 42.7479 84.4127 42.5706 84.058C42.4026 83.7033 42.1646 83.4233 41.8566 83.218C41.5486 83.0127 41.1892 82.91 40.7786 82.91C40.3772 82.91 40.0226 83.0127 39.7146 83.218C39.4066 83.4233 39.1639 83.7033 38.9866 84.058C38.8186 84.4127 38.7346 84.814 38.7346 85.262C38.7346 85.7007 38.8186 86.0973 38.9866 86.452C39.1639 86.8067 39.4066 87.0867 39.7146 87.292C40.0226 87.4973 40.3772 87.6 40.7786 87.6ZM49.1356 89.14C48.4823 89.14 47.8943 89.0607 47.3716 88.902C46.8489 88.734 46.3496 88.4447 45.8736 88.034C45.7523 87.9313 45.6589 87.8147 45.5936 87.684C45.5283 87.5533 45.4956 87.4227 45.4956 87.292C45.4956 87.0773 45.5703 86.8907 45.7196 86.732C45.8783 86.564 46.0743 86.48 46.3076 86.48C46.4849 86.48 46.6436 86.536 46.7836 86.648C47.1383 86.9373 47.4883 87.1567 47.8336 87.306C48.1883 87.4553 48.6223 87.53 49.1356 87.53C49.4809 87.53 49.7983 87.4787 50.0876 87.376C50.3769 87.264 50.6103 87.1193 50.7876 86.942C50.9649 86.7553 51.0536 86.5453 51.0536 86.312C51.0536 86.032 50.9696 85.794 50.8016 85.598C50.6336 85.402 50.3769 85.2387 50.0316 85.108C49.6863 84.968 49.2476 84.8607 48.7156 84.786C48.2116 84.7113 47.7683 84.5993 47.3856 84.45C47.0029 84.2913 46.6809 84.0953 46.4196 83.862C46.1676 83.6193 45.9763 83.3393 45.8456 83.022C45.7149 82.6953 45.6496 82.3313 45.6496 81.93C45.6496 81.3233 45.8036 80.8053 46.1116 80.376C46.4289 79.9467 46.8536 79.62 47.3856 79.396C47.9176 79.172 48.5056 79.06 49.1496 79.06C49.7563 79.06 50.3163 79.1533 50.8296 79.34C51.3523 79.5173 51.7769 79.746 52.1036 80.026C52.3743 80.2407 52.5096 80.488 52.5096 80.768C52.5096 80.9733 52.4303 81.16 52.2716 81.328C52.1129 81.496 51.9263 81.58 51.7116 81.58C51.5716 81.58 51.4456 81.538 51.3336 81.454C51.1843 81.3233 50.9836 81.202 50.7316 81.09C50.4796 80.9687 50.2136 80.8707 49.9336 80.796C49.6536 80.712 49.3923 80.67 49.1496 80.67C48.7483 80.67 48.4076 80.7213 48.1276 80.824C47.8569 80.9267 47.6516 81.0667 47.5116 81.244C47.3716 81.4213 47.3016 81.6267 47.3016 81.86C47.3016 82.14 47.3809 82.3733 47.5396 82.56C47.7076 82.7373 47.9456 82.882 48.2536 82.994C48.5616 83.0967 48.9303 83.19 49.3596 83.274C49.9196 83.3767 50.4096 83.498 50.8296 83.638C51.2589 83.778 51.6136 83.96 51.8936 84.184C52.1736 84.3987 52.3836 84.674 52.5236 85.01C52.6636 85.3367 52.7336 85.738 52.7336 86.214C52.7336 86.8207 52.5656 87.3433 52.2296 87.782C51.8936 88.2207 51.4503 88.5567 50.8996 88.79C50.3583 89.0233 49.7703 89.14 49.1356 89.14ZM57.1111 81.37C57.6431 81.37 58.1051 81.426 58.4971 81.538C58.8984 81.65 59.2064 81.8087 59.4211 82.014C59.6451 82.21 59.7571 82.448 59.7571 82.728C59.7571 82.9147 59.7011 83.092 59.5891 83.26C59.4771 83.4187 59.3138 83.498 59.0991 83.498C58.9498 83.498 58.8238 83.4793 58.7211 83.442C58.6278 83.3953 58.5438 83.3393 58.4691 83.274C58.3944 83.2087 58.3058 83.148 58.2031 83.092C58.1098 83.036 57.9651 82.994 57.7691 82.966C57.5824 82.9287 57.4424 82.91 57.3491 82.91C56.8731 82.91 56.4671 83.0127 56.1311 83.218C55.8044 83.4233 55.5524 83.7033 55.3751 84.058C55.1978 84.4033 55.1091 84.8047 55.1091 85.262C55.1091 85.71 55.1978 86.1113 55.3751 86.466C55.5618 86.8113 55.8138 87.0867 56.1311 87.292C56.4578 87.4973 56.8311 87.6 57.2511 87.6C57.4844 87.6 57.6851 87.586 57.8531 87.558C58.0211 87.53 58.1611 87.488 58.2731 87.432C58.4038 87.3573 58.5204 87.278 58.6231 87.194C58.7258 87.11 58.8798 87.068 59.0851 87.068C59.3278 87.068 59.5144 87.1473 59.6451 87.306C59.7758 87.4553 59.8411 87.642 59.8411 87.866C59.8411 88.0993 59.7104 88.314 59.4491 88.51C59.1878 88.6967 58.8424 88.8507 58.4131 88.972C57.9931 89.084 57.5358 89.14 57.0411 89.14C56.3038 89.14 55.6644 88.972 55.1231 88.636C54.5818 88.2907 54.1618 87.824 53.8631 87.236C53.5738 86.648 53.4291 85.99 53.4291 85.262C53.4291 84.4967 53.5831 83.8247 53.8911 83.246C54.2084 82.658 54.6424 82.2007 55.1931 81.874C55.7531 81.538 56.3924 81.37 57.1111 81.37ZM61.4725 89C61.2299 89 61.0292 88.9207 60.8705 88.762C60.7119 88.594 60.6325 88.3887 60.6325 88.146V82.364C60.6325 82.1213 60.7119 81.9207 60.8705 81.762C61.0292 81.594 61.2299 81.51 61.4725 81.51C61.7152 81.51 61.9159 81.594 62.0745 81.762C62.2332 81.9207 62.3125 82.1213 62.3125 82.364V83.68L62.2145 82.742C62.3172 82.518 62.4479 82.322 62.6065 82.154C62.7745 81.9767 62.9612 81.832 63.1665 81.72C63.3719 81.5987 63.5912 81.51 63.8245 81.454C64.0579 81.398 64.2912 81.37 64.5245 81.37C64.8045 81.37 65.0379 81.4493 65.2245 81.608C65.4205 81.7667 65.5185 81.9533 65.5185 82.168C65.5185 82.476 65.4392 82.7 65.2805 82.84C65.1219 82.9707 64.9492 83.036 64.7625 83.036C64.5852 83.036 64.4219 83.0033 64.2725 82.938C64.1325 82.8727 63.9692 82.84 63.7825 82.84C63.6145 82.84 63.4419 82.882 63.2645 82.966C63.0965 83.0407 62.9379 83.162 62.7885 83.33C62.6485 83.498 62.5319 83.708 62.4385 83.96C62.3545 84.2027 62.3125 84.492 62.3125 84.828V88.146C62.3125 88.3887 62.2332 88.594 62.0745 88.762C61.9159 88.9207 61.7152 89 61.4725 89ZM67.8649 88.146C67.8649 88.3887 67.7855 88.594 67.6269 88.762C67.4682 88.9207 67.2675 89 67.0249 89C66.7822 89 66.5815 88.9207 66.4229 88.762C66.2642 88.594 66.1849 88.3887 66.1849 88.146V82.364C66.1849 82.1213 66.2642 81.9207 66.4229 81.762C66.5815 81.594 66.7822 81.51 67.0249 81.51C67.2675 81.51 67.4682 81.594 67.6269 81.762C67.7855 81.9207 67.8649 82.1213 67.8649 82.364V88.146ZM67.0109 80.6C66.6935 80.6 66.4695 80.5487 66.3389 80.446C66.2082 80.3433 66.1429 80.1613 66.1429 79.9V79.634C66.1429 79.3633 66.2129 79.1813 66.3529 79.088C66.5022 78.9853 66.7262 78.934 67.0249 78.934C67.3515 78.934 67.5802 78.9853 67.7109 79.088C67.8415 79.1907 67.9069 79.3727 67.9069 79.634V79.9C67.9069 80.1707 67.8369 80.3573 67.6969 80.46C67.5569 80.5533 67.3282 80.6 67.0109 80.6ZM73.0494 81.37C73.7028 81.37 74.2861 81.538 74.7994 81.874C75.3221 82.2007 75.7328 82.6533 76.0314 83.232C76.3394 83.8107 76.4934 84.4827 76.4934 85.248C76.4934 86.0133 76.3394 86.69 76.0314 87.278C75.7328 87.8567 75.3268 88.314 74.8134 88.65C74.3094 88.9767 73.7401 89.14 73.1054 89.14C72.7321 89.14 72.3821 89.0793 72.0554 88.958C71.7288 88.8367 71.4394 88.6827 71.1874 88.496C70.9448 88.3093 70.7534 88.1227 70.6134 87.936C70.4828 87.74 70.4174 87.5767 70.4174 87.446L70.8514 87.264V90.946C70.8514 91.1887 70.7721 91.3893 70.6134 91.548C70.4548 91.716 70.2541 91.8 70.0114 91.8C69.7688 91.8 69.5681 91.7207 69.4094 91.562C69.2508 91.4033 69.1714 91.198 69.1714 90.946V82.364C69.1714 82.1213 69.2508 81.9207 69.4094 81.762C69.5681 81.594 69.7688 81.51 70.0114 81.51C70.2541 81.51 70.4548 81.594 70.6134 81.762C70.7721 81.9207 70.8514 82.1213 70.8514 82.364V83.05L70.6134 82.924C70.6134 82.8027 70.6788 82.658 70.8094 82.49C70.9401 82.3127 71.1174 82.14 71.3414 81.972C71.5654 81.7947 71.8221 81.65 72.1114 81.538C72.4101 81.426 72.7228 81.37 73.0494 81.37ZM72.8394 82.91C72.4288 82.91 72.0694 83.0127 71.7614 83.218C71.4534 83.4233 71.2108 83.7033 71.0334 84.058C70.8654 84.4033 70.7814 84.8 70.7814 85.248C70.7814 85.6867 70.8654 86.088 71.0334 86.452C71.2108 86.8067 71.4534 87.0867 71.7614 87.292C72.0694 87.4973 72.4288 87.6 72.8394 87.6C73.2501 87.6 73.6048 87.4973 73.9034 87.292C74.2114 87.0867 74.4494 86.8067 74.6174 86.452C74.7948 86.088 74.8834 85.6867 74.8834 85.248C74.8834 84.8 74.7948 84.4033 74.6174 84.058C74.4494 83.7033 74.2114 83.4233 73.9034 83.218C73.6048 83.0127 73.2501 82.91 72.8394 82.91ZM77.6265 81.65H80.9445C81.1685 81.65 81.3551 81.7247 81.5045 81.874C81.6538 82.0233 81.7285 82.21 81.7285 82.434C81.7285 82.6487 81.6538 82.8307 81.5045 82.98C81.3551 83.12 81.1685 83.19 80.9445 83.19H77.6265C77.4025 83.19 77.2158 83.1153 77.0665 82.966C76.9171 82.8167 76.8425 82.63 76.8425 82.406C76.8425 82.1913 76.9171 82.014 77.0665 81.874C77.2158 81.7247 77.4025 81.65 77.6265 81.65ZM79.1245 79.9C79.3671 79.9 79.5631 79.984 79.7125 80.152C79.8711 80.3107 79.9505 80.5113 79.9505 80.754V86.984C79.9505 87.1147 79.9738 87.222 80.0205 87.306C80.0765 87.39 80.1465 87.4507 80.2305 87.488C80.3238 87.5253 80.4218 87.544 80.5245 87.544C80.6365 87.544 80.7391 87.5253 80.8325 87.488C80.9258 87.4413 81.0331 87.418 81.1545 87.418C81.2851 87.418 81.4018 87.4787 81.5045 87.6C81.6165 87.7213 81.6725 87.8893 81.6725 88.104C81.6725 88.3653 81.5278 88.58 81.2385 88.748C80.9585 88.916 80.6551 89 80.3285 89C80.1325 89 79.9131 88.986 79.6705 88.958C79.4371 88.9207 79.2131 88.8413 78.9985 88.72C78.7931 88.5893 78.6205 88.3933 78.4805 88.132C78.3405 87.8707 78.2705 87.5113 78.2705 87.054V80.754C78.2705 80.5113 78.3498 80.3107 78.5085 80.152C78.6765 79.984 78.8818 79.9 79.1245 79.9Z" fill="white"/>
<path d="M80 9H16V73H80V9Z" fill="#F7DF1E"/>
<path d="M54.8569 62.2295L59.5689 59.1113C59.9383 60.2715 62.2768 63.027 65.2306 63.027C68.1845 63.027 69.5559 61.4137 69.5559 60.344C69.5559 57.4292 66.5397 56.4016 65.091 55.9081C64.8546 55.8277 64.6604 55.7614 64.5273 55.7035C64.459 55.6738 64.3559 55.6343 64.2236 55.5838C62.6124 54.9682 56.6679 52.6971 56.6679 46.1138C56.6679 38.8629 63.6656 38.029 65.2482 38.029C66.2834 38.029 71.2613 38.1559 73.7404 42.8146L69.1689 46.0053C68.1669 43.9749 66.5017 43.3042 65.4768 43.3042C62.9449 43.3042 62.4174 45.1602 62.4174 46.0053C62.4174 48.376 65.1682 49.4386 67.4908 50.3358C68.0985 50.5705 68.6768 50.7938 69.1689 51.0265C71.7008 52.2229 75.4284 54.1808 75.4284 60.344C75.4284 63.4311 72.8391 68.429 66.3207 68.429C57.5646 68.429 55.2437 63.1721 54.8569 62.2295Z" fill="#222831"/>
<path d="M32 62.8485L36.9113 59.7321C37.296 60.8917 38.7915 63.0297 40.9611 63.0297C43.131 63.0297 44.2416 60.8011 44.2416 59.7321V38.7148H50.2816V59.7321C50.3794 62.6311 48.7717 68.429 41.6759 68.429C35.152 68.429 32.4398 64.5518 32 62.8485Z" fill="#222831"/>
</svg>
