<svg width="80" height="80" viewBox="0 0 80 80" fill="none" xmlns="http://www.w3.org/2000/svg">
<rect width="80" height="80" rx="10" fill="#8892BF" fill-opacity="0.4"/>
<ellipse cx="41" cy="40" rx="27" ry="17" fill="white"/>
<path d="M40 20C22.0573 20 8 28.7861 8 40C8 51.2138 22.0573 60 40 60C57.9427 60 72 51.2138 72 40C72 28.7861 57.9427 20 40 20ZM36.6771 26.1538H40.172L39.0624 32.3077H42.1824C44.1613 32.3077 45.4896 32.6262 46.2448 33.4255C46.9843 34.2126 47.2083 35.5049 46.9115 37.2655L45.5261 44.6154H41.9739L43.2501 37.8185C43.4061 36.8871 43.3437 36.2378 43.0728 35.8954C42.8021 35.5529 42.2083 35.3846 41.3176 35.3846H38.5208L36.8333 44.6154H33.3333L36.6771 26.1538ZM21.3333 32.3077H28.4427C31.8333 32.3077 33.8854 34.928 33.0833 38.84C32.151 43.3834 29.651 44.6154 25.0573 44.6154H22.8594L22.1615 49.2308H18.6302L21.3333 32.3077ZM49.3333 32.3077H56.4427C59.8333 32.3077 61.8853 34.928 61.0832 38.84C60.1509 43.3834 57.6509 44.6154 53.0573 44.6154H50.8595L50.1613 49.2308H46.6301L49.3333 32.3077ZM24.3594 35.3846L23.3542 41.5385H25.6354C27.6094 41.5385 29.4427 41.28 29.75 37.8846C29.8646 36.5686 29.3906 35.3846 27.1094 35.3846H24.3594ZM52.3595 35.3846L51.3541 41.5385H53.6355C55.6093 41.5385 57.4427 41.28 57.7499 37.8846C57.8645 36.5686 57.3907 35.3846 55.1093 35.3846H52.3595Z" fill="#8892BF"/>
</svg>
