<svg width="96" height="96" viewBox="0 0 96 96" fill="none" xmlns="http://www.w3.org/2000/svg">
<rect width="96" height="96" rx="10" fill="#8892BF" fill-opacity="0.15"/>
<path d="M40.0492 79.2C40.5345 79.2 40.9872 79.34 41.4072 79.62C41.8365 79.9 42.1819 80.278 42.4432 80.754C42.7045 81.23 42.8352 81.762 42.8352 82.35C42.8352 82.9287 42.7045 83.456 42.4432 83.932C42.1819 84.408 41.8365 84.7907 41.4072 85.08C40.9872 85.36 40.5345 85.5 40.0492 85.5H37.4732L37.6132 85.248V88.146C37.6132 88.3887 37.5385 88.594 37.3892 88.762C37.2399 88.9207 37.0439 89 36.8012 89C36.5679 89 36.3765 88.9207 36.2272 88.762C36.0779 88.594 36.0032 88.3887 36.0032 88.146V80.054C36.0032 79.8113 36.0825 79.6107 36.2412 79.452C36.4092 79.284 36.6145 79.2 36.8572 79.2H40.0492ZM40.0492 83.904C40.2265 83.904 40.3992 83.8293 40.5672 83.68C40.7352 83.5307 40.8752 83.3393 40.9872 83.106C41.0992 82.8633 41.1552 82.6113 41.1552 82.35C41.1552 82.0793 41.0992 81.8273 40.9872 81.594C40.8752 81.3607 40.7352 81.174 40.5672 81.034C40.3992 80.8847 40.2265 80.81 40.0492 80.81H37.4452L37.6132 80.558V84.128L37.4592 83.904H40.0492ZM44.9148 79.2C45.1388 79.2 45.3348 79.284 45.5028 79.452C45.6801 79.6107 45.7688 79.8113 45.7688 80.054V88.146C45.7688 88.3887 45.6801 88.594 45.5028 88.762C45.3254 88.9207 45.1201 89 44.8868 89C44.6254 89 44.4154 88.9207 44.2568 88.762C44.0981 88.594 44.0188 88.3887 44.0188 88.146V80.054C44.0188 79.8113 44.1028 79.6107 44.2708 79.452C44.4388 79.284 44.6534 79.2 44.9148 79.2ZM51.1168 79.2C51.3781 79.2 51.5881 79.284 51.7468 79.452C51.9054 79.6107 51.9848 79.8113 51.9848 80.054V88.146C51.9848 88.3887 51.9008 88.594 51.7328 88.762C51.5741 88.9207 51.3594 89 51.0888 89C50.8648 89 50.6641 88.9207 50.4868 88.762C50.3188 88.594 50.2348 88.3887 50.2348 88.146V80.054C50.2348 79.8113 50.3234 79.6107 50.5008 79.452C50.6781 79.284 50.8834 79.2 51.1168 79.2ZM44.8728 83.274H51.1168V84.884H44.8728V83.274ZM57.7073 79.2C58.1926 79.2 58.6453 79.34 59.0653 79.62C59.4946 79.9 59.8399 80.278 60.1013 80.754C60.3626 81.23 60.4933 81.762 60.4933 82.35C60.4933 82.9287 60.3626 83.456 60.1013 83.932C59.8399 84.408 59.4946 84.7907 59.0653 85.08C58.6453 85.36 58.1926 85.5 57.7073 85.5H55.1313L55.2713 85.248V88.146C55.2713 88.3887 55.1966 88.594 55.0473 88.762C54.8979 88.9207 54.7019 89 54.4593 89C54.2259 89 54.0346 88.9207 53.8853 88.762C53.7359 88.594 53.6613 88.3887 53.6613 88.146V80.054C53.6613 79.8113 53.7406 79.6107 53.8993 79.452C54.0673 79.284 54.2726 79.2 54.5153 79.2H57.7073ZM57.7073 83.904C57.8846 83.904 58.0573 83.8293 58.2253 83.68C58.3933 83.5307 58.5333 83.3393 58.6453 83.106C58.7573 82.8633 58.8133 82.6113 58.8133 82.35C58.8133 82.0793 58.7573 81.8273 58.6453 81.594C58.5333 81.3607 58.3933 81.174 58.2253 81.034C58.0573 80.8847 57.8846 80.81 57.7073 80.81H55.1033L55.2713 80.558V84.128L55.1173 83.904H57.7073Z" fill="white"/>
<path d="M48 23C30.0573 23 16 31.7861 16 43C16 54.2138 30.0573 63 48 63C65.9427 63 80 54.2138 80 43C80 31.7861 65.9427 23 48 23ZM44.6771 29.1538H48.172L47.0624 35.3077H50.1824C52.1613 35.3077 53.4896 35.6262 54.2448 36.4255C54.9843 37.2126 55.2083 38.5049 54.9115 40.2655L53.5261 47.6154H49.9739L51.2501 40.8185C51.4061 39.8871 51.3437 39.2378 51.0728 38.8954C50.8021 38.5529 50.2083 38.3846 49.3176 38.3846H46.5208L44.8333 47.6154H41.3333L44.6771 29.1538ZM29.3333 35.3077H36.4427C39.8333 35.3077 41.8854 37.928 41.0833 41.84C40.151 46.3834 37.651 47.6154 33.0573 47.6154H30.8594L30.1615 52.2308H26.6302L29.3333 35.3077ZM57.3333 35.3077H64.4427C67.8333 35.3077 69.8853 37.928 69.0832 41.84C68.1509 46.3834 65.6509 47.6154 61.0573 47.6154H58.8595L58.1613 52.2308H54.6301L57.3333 35.3077ZM32.3594 38.3846L31.3542 44.5385H33.6354C35.6094 44.5385 37.4427 44.28 37.75 40.8846C37.8646 39.5686 37.3906 38.3846 35.1094 38.3846H32.3594ZM60.3595 38.3846L59.3541 44.5385H61.6355C63.6093 44.5385 65.4427 44.28 65.7499 40.8846C65.8645 39.5686 65.3907 38.3846 63.1093 38.3846H60.3595Z" fill="#8892BF"/>
</svg>
