<svg width="96" height="96" viewBox="0 0 96 96" fill="none" xmlns="http://www.w3.org/2000/svg">
<rect width="96" height="96" rx="10" fill="#53C1DE" fill-opacity="0.15"/>
<path d="M31.0738 89C30.8124 89 30.5791 88.9207 30.3738 88.762C30.1684 88.594 30.0658 88.3887 30.0658 88.146V80.054C30.0658 79.8113 30.1451 79.6107 30.3038 79.452C30.4718 79.284 30.6771 79.2 30.9198 79.2H34.9518C35.4371 79.2 35.8898 79.3307 36.3098 79.592C36.7391 79.844 37.0844 80.1987 37.3458 80.656C37.6071 81.104 37.7378 81.622 37.7378 82.21C37.7378 82.5647 37.6631 82.91 37.5138 83.246C37.3738 83.582 37.1778 83.8853 36.9258 84.156C36.6831 84.4267 36.4078 84.6367 36.0998 84.786L36.1138 84.464C36.3751 84.604 36.5898 84.772 36.7578 84.968C36.9351 85.1547 37.0704 85.36 37.1638 85.584C37.2664 85.7987 37.3271 86.032 37.3458 86.284C37.3831 86.5173 37.4064 86.7227 37.4158 86.9C37.4344 87.0773 37.4624 87.2267 37.4998 87.348C37.5464 87.4693 37.6304 87.5627 37.7518 87.628C37.9571 87.7493 38.0831 87.9267 38.1298 88.16C38.1858 88.384 38.1344 88.5847 37.9758 88.762C37.8731 88.8833 37.7424 88.9627 37.5838 89C37.4251 89.028 37.2664 89.028 37.1078 89C36.9491 88.9627 36.8184 88.916 36.7158 88.86C36.5571 88.7667 36.3984 88.6313 36.2398 88.454C36.0811 88.2673 35.9504 88.02 35.8478 87.712C35.7544 87.404 35.7078 87.0073 35.7078 86.522C35.7078 86.3633 35.6798 86.2187 35.6238 86.088C35.5678 85.948 35.4884 85.8313 35.3858 85.738C35.2831 85.6353 35.1524 85.5607 34.9938 85.514C34.8351 85.458 34.6484 85.43 34.4338 85.43H31.6058L31.8158 85.108V88.146C31.8158 88.3887 31.7504 88.594 31.6198 88.762C31.4891 88.9207 31.3071 89 31.0738 89ZM31.6198 83.988H34.8818C35.0498 83.988 35.2131 83.9133 35.3718 83.764C35.5304 83.6053 35.6611 83.3953 35.7638 83.134C35.8664 82.8633 35.9178 82.5693 35.9178 82.252C35.9178 81.8413 35.8058 81.5007 35.5818 81.23C35.3671 80.95 35.1338 80.81 34.8818 80.81H31.6478L31.8158 80.362V84.324L31.6198 83.988ZM42.5767 89.14C41.7834 89.14 41.0927 88.9767 40.5047 88.65C39.9261 88.314 39.4781 87.8613 39.1607 87.292C38.8527 86.7227 38.6987 86.0787 38.6987 85.36C38.6987 84.52 38.8667 83.806 39.2027 83.218C39.5481 82.6207 39.9961 82.1633 40.5467 81.846C41.0974 81.5287 41.6807 81.37 42.2967 81.37C42.7727 81.37 43.2207 81.468 43.6407 81.664C44.0701 81.86 44.4481 82.1307 44.7747 82.476C45.1014 82.812 45.3581 83.204 45.5447 83.652C45.7407 84.1 45.8387 84.576 45.8387 85.08C45.8294 85.304 45.7407 85.486 45.5727 85.626C45.4047 85.766 45.2087 85.836 44.9847 85.836H39.6367L39.2167 84.436H44.3547L44.0467 84.716V84.338C44.0281 84.0673 43.9301 83.8247 43.7527 83.61C43.5847 83.3953 43.3701 83.2273 43.1087 83.106C42.8567 82.9753 42.5861 82.91 42.2967 82.91C42.0167 82.91 41.7554 82.9473 41.5127 83.022C41.2701 83.0967 41.0601 83.2227 40.8827 83.4C40.7054 83.5773 40.5654 83.8153 40.4627 84.114C40.3601 84.4127 40.3087 84.7907 40.3087 85.248C40.3087 85.752 40.4114 86.1813 40.6167 86.536C40.8314 86.8813 41.1021 87.1473 41.4287 87.334C41.7647 87.5113 42.1194 87.6 42.4927 87.6C42.8381 87.6 43.1134 87.572 43.3187 87.516C43.5241 87.46 43.6874 87.3947 43.8087 87.32C43.9394 87.236 44.0561 87.166 44.1587 87.11C44.3267 87.026 44.4854 86.984 44.6347 86.984C44.8401 86.984 45.0081 87.054 45.1387 87.194C45.2787 87.334 45.3487 87.4973 45.3487 87.684C45.3487 87.936 45.2181 88.1647 44.9567 88.37C44.7141 88.5753 44.3734 88.7573 43.9347 88.916C43.4961 89.0653 43.0434 89.14 42.5767 89.14ZM53.0733 81.37C53.3159 81.37 53.5166 81.4493 53.6753 81.608C53.8339 81.7667 53.9133 81.972 53.9133 82.224V88.146C53.9133 88.3887 53.8339 88.594 53.6753 88.762C53.5166 88.9207 53.3159 89 53.0733 89C52.8306 89 52.6299 88.9207 52.4713 88.762C52.3126 88.594 52.2333 88.3887 52.2333 88.146V87.46L52.5413 87.586C52.5413 87.7073 52.4759 87.8567 52.3453 88.034C52.2146 88.202 52.0373 88.37 51.8133 88.538C51.5893 88.706 51.3233 88.8507 51.0153 88.972C50.7166 89.084 50.3899 89.14 50.0353 89.14C49.3913 89.14 48.8079 88.9767 48.2853 88.65C47.7626 88.314 47.3473 87.8567 47.0393 87.278C46.7406 86.69 46.5913 86.018 46.5913 85.262C46.5913 84.4967 46.7406 83.8247 47.0393 83.246C47.3473 82.658 47.7579 82.2007 48.2713 81.874C48.7846 81.538 49.3539 81.37 49.9793 81.37C50.3806 81.37 50.7493 81.4307 51.0853 81.552C51.4213 81.6733 51.7106 81.8273 51.9533 82.014C52.2053 82.2007 52.3966 82.392 52.5273 82.588C52.6673 82.7747 52.7373 82.9333 52.7373 83.064L52.2333 83.246V82.224C52.2333 81.9813 52.3126 81.7807 52.4713 81.622C52.6299 81.454 52.8306 81.37 53.0733 81.37ZM50.2453 87.6C50.6559 87.6 51.0153 87.4973 51.3233 87.292C51.6313 87.0867 51.8693 86.8067 52.0373 86.452C52.2146 86.0973 52.3033 85.7007 52.3033 85.262C52.3033 84.814 52.2146 84.4127 52.0373 84.058C51.8693 83.7033 51.6313 83.4233 51.3233 83.218C51.0153 83.0127 50.6559 82.91 50.2453 82.91C49.8439 82.91 49.4893 83.0127 49.1813 83.218C48.8733 83.4233 48.6306 83.7033 48.4533 84.058C48.2853 84.4127 48.2013 84.814 48.2013 85.262C48.2013 85.7007 48.2853 86.0973 48.4533 86.452C48.6306 86.8067 48.8733 87.0867 49.1813 87.292C49.4893 87.4973 49.8439 87.6 50.2453 87.6ZM58.6443 81.37C59.1763 81.37 59.6383 81.426 60.0303 81.538C60.4316 81.65 60.7396 81.8087 60.9543 82.014C61.1783 82.21 61.2903 82.448 61.2903 82.728C61.2903 82.9147 61.2343 83.092 61.1223 83.26C61.0103 83.4187 60.8469 83.498 60.6323 83.498C60.4829 83.498 60.3569 83.4793 60.2543 83.442C60.1609 83.3953 60.0769 83.3393 60.0023 83.274C59.9276 83.2087 59.8389 83.148 59.7363 83.092C59.6429 83.036 59.4983 82.994 59.3023 82.966C59.1156 82.9287 58.9756 82.91 58.8823 82.91C58.4063 82.91 58.0003 83.0127 57.6643 83.218C57.3376 83.4233 57.0856 83.7033 56.9083 84.058C56.7309 84.4033 56.6423 84.8047 56.6423 85.262C56.6423 85.71 56.7309 86.1113 56.9083 86.466C57.0949 86.8113 57.3469 87.0867 57.6643 87.292C57.9909 87.4973 58.3643 87.6 58.7843 87.6C59.0176 87.6 59.2183 87.586 59.3863 87.558C59.5543 87.53 59.6943 87.488 59.8063 87.432C59.9369 87.3573 60.0536 87.278 60.1563 87.194C60.2589 87.11 60.4129 87.068 60.6183 87.068C60.8609 87.068 61.0476 87.1473 61.1783 87.306C61.3089 87.4553 61.3743 87.642 61.3743 87.866C61.3743 88.0993 61.2436 88.314 60.9823 88.51C60.7209 88.6967 60.3756 88.8507 59.9463 88.972C59.5263 89.084 59.0689 89.14 58.5743 89.14C57.8369 89.14 57.1976 88.972 56.6563 88.636C56.1149 88.2907 55.6949 87.824 55.3963 87.236C55.1069 86.648 54.9623 85.99 54.9623 85.262C54.9623 84.4967 55.1163 83.8247 55.4243 83.246C55.7416 82.658 56.1756 82.2007 56.7263 81.874C57.2863 81.538 57.9256 81.37 58.6443 81.37ZM62.2497 81.65H65.5677C65.7917 81.65 65.9784 81.7247 66.1277 81.874C66.277 82.0233 66.3517 82.21 66.3517 82.434C66.3517 82.6487 66.277 82.8307 66.1277 82.98C65.9784 83.12 65.7917 83.19 65.5677 83.19H62.2497C62.0257 83.19 61.839 83.1153 61.6897 82.966C61.5404 82.8167 61.4657 82.63 61.4657 82.406C61.4657 82.1913 61.5404 82.014 61.6897 81.874C61.839 81.7247 62.0257 81.65 62.2497 81.65ZM63.7477 79.9C63.9904 79.9 64.1864 79.984 64.3357 80.152C64.4944 80.3107 64.5737 80.5113 64.5737 80.754V86.984C64.5737 87.1147 64.597 87.222 64.6437 87.306C64.6997 87.39 64.7697 87.4507 64.8537 87.488C64.947 87.5253 65.045 87.544 65.1477 87.544C65.2597 87.544 65.3624 87.5253 65.4557 87.488C65.549 87.4413 65.6564 87.418 65.7777 87.418C65.9084 87.418 66.025 87.4787 66.1277 87.6C66.2397 87.7213 66.2957 87.8893 66.2957 88.104C66.2957 88.3653 66.151 88.58 65.8617 88.748C65.5817 88.916 65.2784 89 64.9517 89C64.7557 89 64.5364 88.986 64.2937 88.958C64.0604 88.9207 63.8364 88.8413 63.6217 88.72C63.4164 88.5893 63.2437 88.3933 63.1037 88.132C62.9637 87.8707 62.8937 87.5113 62.8937 87.054V80.754C62.8937 80.5113 62.973 80.3107 63.1317 80.152C63.2997 79.984 63.505 79.9 63.7477 79.9Z" fill="white"/>
<path d="M53.7149 40.9407C53.7149 37.4098 51.1564 34.5471 47.9999 34.5471C44.8438 34.5471 42.2849 37.4098 42.2849 40.9407C42.2849 44.472 44.8438 47.3345 47.9999 47.3345C51.1564 47.3345 53.7149 44.472 53.7149 40.9407Z" fill="#53C1DE"/>
<path fill-rule="evenodd" clip-rule="evenodd" d="M66.5609 29.0706C67.7677 23.5841 69.2847 13.4098 63.9369 9.96039C58.614 6.52603 51.6873 13.1069 48.0297 17.0571C44.3827 13.1463 37.2614 6.59352 31.9181 10.0539C26.5974 13.4998 28.2382 23.5054 29.4718 29.0263C24.5084 30.6034 16 34.0004 16 40.9407C16 47.8613 24.4995 51.557 29.4336 53.1327C28.1954 58.6842 26.6367 68.5468 31.9643 71.9851C37.3276 75.4448 44.4267 69.048 48.1182 65.0546C51.7993 69.0281 58.6594 75.4667 63.9834 72.0188C69.324 68.5601 67.933 58.5222 66.6993 52.9692C71.4822 51.3901 80 47.7749 80 40.9407C80 34.0671 71.446 30.6426 66.5609 29.0706ZM65.9546 50.0265C65.1445 47.1578 64.0512 44.1072 62.7138 40.9559C63.9904 37.879 65.0413 34.8678 65.8287 32.0176C69.4099 33.1792 77.2661 35.834 77.2661 40.9407C77.2661 46.0954 69.7271 48.7753 65.9546 50.0265ZM62.6133 69.3717C58.6411 71.944 52.7405 65.7867 50.022 62.8607C51.8255 60.6539 53.6277 58.0885 55.3867 55.2398C58.4809 54.9328 61.4037 54.4306 64.0546 53.7451C64.9229 57.673 66.6031 66.7878 62.6133 69.3717ZM33.3304 69.335C29.3577 66.7723 31.1735 57.9713 32.0844 53.882C34.7058 54.5308 37.6077 54.9975 40.7091 55.2789C42.4796 58.0663 44.3341 60.6286 46.2029 62.8725C43.894 65.3712 37.3216 71.9095 33.3304 69.335ZM18.7338 40.9407C18.7338 35.7668 26.5431 33.1312 30.206 31.9726C31.007 34.8868 32.0575 37.9339 33.3253 41.0153C32.0411 44.1424 30.9755 47.2378 30.1671 50.1865C26.6745 49.0679 18.7338 46.1178 18.7338 40.9407ZM33.2879 12.701C37.2768 10.1179 43.466 16.4088 46.1139 19.2403C44.2547 21.4739 42.4173 24.0169 40.662 26.7883C37.6521 27.1004 34.7707 27.6016 32.1218 28.2731C31.128 23.8202 29.3033 15.2813 33.2879 12.701ZM57.3425 30.1129C59.3845 30.4011 61.341 30.7846 63.178 31.2538C62.6266 33.2314 61.9392 35.2993 61.1296 37.4192C59.9561 34.9281 58.6963 32.487 57.3425 30.1129ZM48.0305 21.4261C49.2915 22.9544 50.5545 24.661 51.7969 26.5126C49.2768 26.3792 46.7526 26.3787 44.2325 26.5106C45.4761 24.6763 46.7499 22.9721 48.0305 21.4261ZM34.8939 37.417C34.0977 35.3045 33.4165 33.2274 32.8602 31.2215C34.6863 30.7644 36.6336 30.3908 38.6624 30.1072C37.3047 32.4762 36.0471 34.9163 34.8939 37.417ZM38.7206 51.9925C36.6249 51.7308 34.648 51.3761 32.8225 50.9316C33.3876 48.8905 34.0838 46.7686 34.897 44.6106C36.0661 47.1374 37.3429 49.6011 38.7206 51.9925ZM48.1062 60.6714C46.8105 59.1071 45.5179 57.3769 44.2556 55.5159C46.79 55.6272 49.3293 55.6274 51.8635 55.5009C50.6172 57.3958 49.3587 59.1285 48.1062 60.6714ZM61.1556 44.5008C62.0111 46.6822 62.7322 48.7925 63.305 50.7991C61.4492 51.273 59.4458 51.6545 57.3348 51.9378C58.6987 49.5186 59.9785 47.0396 61.1556 44.5008ZM53.8609 52.3086C49.9842 52.6185 46.0834 52.615 42.2054 52.3339C40.0019 48.7329 38.0403 44.9458 36.3471 41.0143C38.0322 37.0908 39.9795 33.3111 42.1726 29.7158C46.0533 29.3877 49.958 29.3867 53.8387 29.7178C56.013 33.3129 57.9573 37.0827 59.6815 40.9707C57.9778 44.8922 56.0203 48.6795 53.8609 52.3086ZM62.5713 12.6101C66.5613 15.1847 64.7853 24.3286 63.9136 28.3049C61.2585 27.6193 58.375 27.1093 55.3564 26.7922C53.5977 23.9909 51.7756 21.4435 49.9465 19.2387C52.6283 16.3462 58.6199 10.0606 62.5713 12.6101Z" fill="#53C1DE"/>
</svg>
