<svg width="80" height="80" viewBox="0 0 80 80" fill="none" xmlns="http://www.w3.org/2000/svg">
<rect width="80" height="80" rx="10" fill="#53C1DE" fill-opacity="0.4"/>
<path d="M45.7151 39.9407C45.7151 36.4098 43.1566 33.5471 40.0001 33.5471C36.8441 33.5471 34.2852 36.4098 34.2852 39.9407C34.2852 43.472 36.8441 46.3345 40.0001 46.3345C43.1566 46.3345 45.7151 43.472 45.7151 39.9407Z" fill="#53C1DE"/>
<path fill-rule="evenodd" clip-rule="evenodd" d="M58.5609 28.0706C59.7677 22.5841 61.2847 12.4098 55.9369 8.96039C50.614 5.52603 43.6873 12.1069 40.0297 16.0571C36.3827 12.1463 29.2614 5.59352 23.9181 9.05388C18.5974 12.4998 20.2382 22.5054 21.4718 28.0263C16.5084 29.6034 8 33.0004 8 39.9407C8 46.8613 16.4995 50.557 21.4336 52.1327C20.1954 57.6842 18.6367 67.5468 23.9643 70.9851C29.3276 74.4448 36.4267 68.048 40.1182 64.0546C43.7993 68.0281 50.6594 74.4667 55.9834 71.0188C61.324 67.5601 59.933 57.5222 58.6993 51.9692C63.4822 50.3901 72 46.7749 72 39.9407C72 33.0671 63.446 29.6426 58.5609 28.0706ZM57.9546 49.0265C57.1445 46.1578 56.0512 43.1072 54.7138 39.9559C55.9904 36.879 57.0413 33.8678 57.8287 31.0176C61.4099 32.1792 69.2661 34.834 69.2661 39.9407C69.2661 45.0954 61.7272 47.7753 57.9546 49.0265ZM54.6133 68.3717C50.6411 70.944 44.7405 64.7867 42.022 61.8607C43.8255 59.6539 45.6277 57.0885 47.3867 54.2398C50.4809 53.9328 53.4037 53.4306 56.0546 52.7451C56.9229 56.673 58.6031 65.7878 54.6133 68.3717ZM25.3304 68.335C21.3577 65.7723 23.1735 56.9713 24.0844 52.882C26.7058 53.5308 29.6077 53.9975 32.7091 54.2789C34.4796 57.0663 36.3341 59.6286 38.2029 61.8725C35.894 64.3712 29.3216 70.9095 25.3304 68.335ZM10.7338 39.9407C10.7338 34.7668 18.5431 32.1312 22.206 30.9726C23.007 33.8868 24.0575 36.9339 25.3253 40.0153C24.0411 43.1424 22.9755 46.2378 22.1671 49.1865C18.6745 48.0679 10.7338 45.1178 10.7338 39.9407ZM25.2879 11.701C29.2768 9.11793 35.466 15.4088 38.1139 18.2403C36.2547 20.4739 34.4173 23.0169 32.662 25.7883C29.6521 26.1004 26.7707 26.6016 24.1218 27.2731C23.128 22.8202 21.3033 14.2813 25.2879 11.701ZM49.3425 29.1129C51.3845 29.4011 53.341 29.7846 55.178 30.2538C54.6266 32.2314 53.9392 34.2993 53.1296 36.4192C51.9561 33.9281 50.6963 31.487 49.3425 29.1129ZM40.0305 20.4261C41.2915 21.9544 42.5545 23.661 43.7969 25.5126C41.2768 25.3792 38.7526 25.3787 36.2325 25.5106C37.4761 23.6763 38.7499 21.9721 40.0305 20.4261ZM26.8939 36.417C26.0977 34.3045 25.4165 32.2274 24.8602 30.2215C26.6863 29.7644 28.6336 29.3908 30.6624 29.1072C29.3047 31.4762 28.0471 33.9163 26.8939 36.417ZM30.7206 50.9925C28.6249 50.7308 26.648 50.3761 24.8225 49.9316C25.3876 47.8905 26.0838 45.7686 26.897 43.6106C28.0661 46.1374 29.3429 48.6011 30.7206 50.9925ZM40.1062 59.6714C38.8105 58.1071 37.5179 56.3769 36.2556 54.5159C38.79 54.6272 41.3293 54.6274 43.8635 54.5009C42.6172 56.3958 41.3587 58.1285 40.1062 59.6714ZM53.1556 43.5008C54.0111 45.6822 54.7322 47.7925 55.305 49.7991C53.4492 50.273 51.4458 50.6545 49.3348 50.9378C50.6987 48.5186 51.9785 46.0396 53.1556 43.5008ZM45.8609 51.3086C41.9842 51.6185 38.0834 51.615 34.2054 51.3339C32.0019 47.7329 30.0403 43.9458 28.3471 40.0143C30.0322 36.0908 31.9795 32.3111 34.1726 28.7158C38.0533 28.3877 41.958 28.3867 45.8387 28.7178C48.013 32.3129 49.9573 36.0827 51.6815 39.9707C49.9778 43.8922 48.0203 47.6795 45.8609 51.3086ZM54.5713 11.6101C58.5613 14.1847 56.7853 23.3286 55.9136 27.3049C53.2585 26.6193 50.375 26.1093 47.3564 25.7922C45.5977 22.9909 43.7756 20.4435 41.9465 18.2387C44.6283 15.3462 50.6199 9.06065 54.5713 11.6101Z" fill="#53C1DE"/>
</svg>
