<svg width="96" height="96" viewBox="0 0 96 96" fill="none" xmlns="http://www.w3.org/2000/svg">
<rect width="96" height="96" rx="10" fill="#33A9DC" fill-opacity="0.15"/>
<path d="M26.7267 89C26.4653 89 26.2507 88.9207 26.0827 88.762C25.9147 88.594 25.8307 88.3887 25.8307 88.146V80.026H27.6507V88.146C27.6507 88.3887 27.562 88.594 27.3847 88.762C27.2167 88.9207 26.9973 89 26.7267 89ZM23.6327 80.81C23.39 80.81 23.1847 80.7353 23.0167 80.586C22.858 80.4367 22.7787 80.2407 22.7787 79.998C22.7787 79.7553 22.858 79.564 23.0167 79.424C23.1847 79.2747 23.39 79.2 23.6327 79.2H29.8487C30.0913 79.2 30.292 79.2747 30.4507 79.424C30.6187 79.5733 30.7027 79.7693 30.7027 80.012C30.7027 80.2547 30.6187 80.4507 30.4507 80.6C30.292 80.74 30.0913 80.81 29.8487 80.81H23.6327ZM36.3498 81.37C36.5925 81.37 36.7931 81.4493 36.9518 81.608C37.1105 81.7667 37.1898 81.972 37.1898 82.224V88.146C37.1898 88.3887 37.1105 88.594 36.9518 88.762C36.7931 88.9207 36.5925 89 36.3498 89C36.1071 89 35.9065 88.9207 35.7478 88.762C35.5891 88.594 35.5098 88.3887 35.5098 88.146V87.46L35.8178 87.586C35.8178 87.7073 35.7525 87.8567 35.6218 88.034C35.4911 88.202 35.3138 88.37 35.0898 88.538C34.8658 88.706 34.5998 88.8507 34.2918 88.972C33.9931 89.084 33.6665 89.14 33.3118 89.14C32.6678 89.14 32.0845 88.9767 31.5618 88.65C31.0391 88.314 30.6238 87.8567 30.3158 87.278C30.0171 86.69 29.8678 86.018 29.8678 85.262C29.8678 84.4967 30.0171 83.8247 30.3158 83.246C30.6238 82.658 31.0345 82.2007 31.5478 81.874C32.0611 81.538 32.6305 81.37 33.2558 81.37C33.6571 81.37 34.0258 81.4307 34.3618 81.552C34.6978 81.6733 34.9871 81.8273 35.2298 82.014C35.4818 82.2007 35.6731 82.392 35.8038 82.588C35.9438 82.7747 36.0138 82.9333 36.0138 83.064L35.5098 83.246V82.224C35.5098 81.9813 35.5891 81.7807 35.7478 81.622C35.9065 81.454 36.1071 81.37 36.3498 81.37ZM33.5218 87.6C33.9325 87.6 34.2918 87.4973 34.5998 87.292C34.9078 87.0867 35.1458 86.8067 35.3138 86.452C35.4911 86.0973 35.5798 85.7007 35.5798 85.262C35.5798 84.814 35.4911 84.4127 35.3138 84.058C35.1458 83.7033 34.9078 83.4233 34.5998 83.218C34.2918 83.0127 33.9325 82.91 33.5218 82.91C33.1205 82.91 32.7658 83.0127 32.4578 83.218C32.1498 83.4233 31.9071 83.7033 31.7298 84.058C31.5618 84.4127 31.4778 84.814 31.4778 85.262C31.4778 85.7007 31.5618 86.0973 31.7298 86.452C31.9071 86.8067 32.1498 87.0867 32.4578 87.292C32.7658 87.4973 33.1205 87.6 33.5218 87.6ZM40.1708 88.146C40.1708 88.3887 40.0915 88.594 39.9328 88.762C39.7742 88.9207 39.5735 89 39.3308 89C39.0882 89 38.8875 88.9207 38.7288 88.762C38.5702 88.594 38.4908 88.3887 38.4908 88.146V82.364C38.4908 82.1213 38.5702 81.9207 38.7288 81.762C38.8875 81.594 39.0882 81.51 39.3308 81.51C39.5735 81.51 39.7742 81.594 39.9328 81.762C40.0915 81.9207 40.1708 82.1213 40.1708 82.364V88.146ZM39.3168 80.6C38.9995 80.6 38.7755 80.5487 38.6448 80.446C38.5142 80.3433 38.4488 80.1613 38.4488 79.9V79.634C38.4488 79.3633 38.5188 79.1813 38.6588 79.088C38.8082 78.9853 39.0322 78.934 39.3308 78.934C39.6575 78.934 39.8862 78.9853 40.0168 79.088C40.1475 79.1907 40.2128 79.3727 40.2128 79.634V79.9C40.2128 80.1707 40.1428 80.3573 40.0028 80.46C39.8628 80.5533 39.6342 80.6 39.3168 80.6ZM43.2974 88.146C43.2974 88.3887 43.2134 88.594 43.0454 88.762C42.8868 88.9207 42.6861 89 42.4434 89C42.2101 89 42.0141 88.9207 41.8554 88.762C41.6968 88.594 41.6174 88.3887 41.6174 88.146V79.494C41.6174 79.2513 41.6968 79.0507 41.8554 78.892C42.0234 78.724 42.2288 78.64 42.4714 78.64C42.7141 78.64 42.9101 78.724 43.0594 78.892C43.2181 79.0507 43.2974 79.2513 43.2974 79.494V88.146ZM53.2498 81.51C53.4644 81.51 53.6511 81.594 53.8098 81.762C53.9684 81.9207 54.0478 82.126 54.0478 82.378C54.0478 82.4433 54.0431 82.504 54.0338 82.56C54.0244 82.6067 54.0104 82.6533 53.9918 82.7L51.8498 88.468C51.7844 88.6547 51.6678 88.7993 51.4998 88.902C51.3318 88.9953 51.1544 89.028 50.9678 89C50.6504 88.9813 50.4124 88.804 50.2538 88.468L48.8678 84.478L49.2318 84.492L47.9298 88.468C47.7711 88.804 47.5331 88.9813 47.2158 89C47.0384 89.028 46.8611 88.9953 46.6838 88.902C46.5158 88.7993 46.3991 88.6547 46.3338 88.468L44.1918 82.7C44.1544 82.5973 44.1358 82.49 44.1358 82.378C44.1358 82.154 44.2104 81.9533 44.3598 81.776C44.5091 81.5987 44.7144 81.51 44.9758 81.51C45.1531 81.51 45.3118 81.552 45.4518 81.636C45.5918 81.72 45.6898 81.8553 45.7458 82.042L47.4398 86.634L47.0898 86.606L48.3638 83.148C48.5131 82.8027 48.7698 82.63 49.1338 82.63C49.3391 82.63 49.4931 82.6767 49.5958 82.77C49.7078 82.854 49.7964 82.98 49.8618 83.148L51.1358 86.606L50.7158 86.662L52.4378 82.042C52.5498 81.6873 52.8204 81.51 53.2498 81.51ZM56.5339 88.146C56.5339 88.3887 56.4545 88.594 56.2959 88.762C56.1372 88.9207 55.9365 89 55.6939 89C55.4512 89 55.2505 88.9207 55.0919 88.762C54.9332 88.594 54.8539 88.3887 54.8539 88.146V82.364C54.8539 82.1213 54.9332 81.9207 55.0919 81.762C55.2505 81.594 55.4512 81.51 55.6939 81.51C55.9365 81.51 56.1372 81.594 56.2959 81.762C56.4545 81.9207 56.5339 82.1213 56.5339 82.364V88.146ZM55.6799 80.6C55.3625 80.6 55.1385 80.5487 55.0079 80.446C54.8772 80.3433 54.8119 80.1613 54.8119 79.9V79.634C54.8119 79.3633 54.8819 79.1813 55.0219 79.088C55.1712 78.9853 55.3952 78.934 55.6939 78.934C56.0205 78.934 56.2492 78.9853 56.3799 79.088C56.5105 79.1907 56.5759 79.3727 56.5759 79.634V79.9C56.5759 80.1707 56.5059 80.3573 56.3659 80.46C56.2259 80.5533 55.9972 80.6 55.6799 80.6ZM61.8445 81.37C62.5351 81.37 63.0578 81.5147 63.4125 81.804C63.7765 82.0933 64.0238 82.4807 64.1545 82.966C64.2945 83.442 64.3645 83.974 64.3645 84.562V88.146C64.3645 88.3887 64.2851 88.594 64.1265 88.762C63.9678 88.9207 63.7671 89 63.5245 89C63.2818 89 63.0811 88.9207 62.9225 88.762C62.7638 88.594 62.6845 88.3887 62.6845 88.146V84.562C62.6845 84.254 62.6425 83.9787 62.5585 83.736C62.4838 83.484 62.3438 83.2833 62.1385 83.134C61.9331 82.9847 61.6391 82.91 61.2565 82.91C60.8831 82.91 60.5658 82.9847 60.3045 83.134C60.0525 83.2833 59.8565 83.484 59.7165 83.736C59.5858 83.9787 59.5205 84.254 59.5205 84.562V88.146C59.5205 88.3887 59.4411 88.594 59.2825 88.762C59.1238 88.9207 58.9231 89 58.6805 89C58.4378 89 58.2371 88.9207 58.0785 88.762C57.9198 88.594 57.8405 88.3887 57.8405 88.146V82.364C57.8405 82.1213 57.9198 81.9207 58.0785 81.762C58.2371 81.594 58.4378 81.51 58.6805 81.51C58.9231 81.51 59.1238 81.594 59.2825 81.762C59.4411 81.9207 59.5205 82.1213 59.5205 82.364V82.966L59.3105 82.924C59.3945 82.7653 59.5158 82.5973 59.6745 82.42C59.8331 82.2333 60.0198 82.0607 60.2345 81.902C60.4491 81.7433 60.6918 81.6173 60.9625 81.524C61.2331 81.4213 61.5271 81.37 61.8445 81.37ZM71.8923 78.64C72.135 78.64 72.3356 78.7193 72.4943 78.878C72.653 79.0367 72.7323 79.242 72.7323 79.494V88.146C72.7323 88.3887 72.653 88.594 72.4943 88.762C72.3356 88.9207 72.135 89 71.8923 89C71.6496 89 71.449 88.9207 71.2903 88.762C71.1316 88.594 71.0523 88.3887 71.0523 88.146V87.46L71.3603 87.586C71.3603 87.7073 71.295 87.8567 71.1643 88.034C71.0336 88.202 70.8563 88.37 70.6323 88.538C70.4083 88.706 70.1423 88.8507 69.8343 88.972C69.5356 89.084 69.209 89.14 68.8543 89.14C68.2103 89.14 67.627 88.9767 67.1043 88.65C66.5816 88.314 66.1663 87.8567 65.8583 87.278C65.5596 86.69 65.4103 86.018 65.4103 85.262C65.4103 84.4967 65.5596 83.8247 65.8583 83.246C66.1663 82.658 66.577 82.2007 67.0903 81.874C67.6036 81.538 68.173 81.37 68.7983 81.37C69.1996 81.37 69.5683 81.4307 69.9043 81.552C70.2403 81.6733 70.5296 81.8273 70.7723 82.014C71.0243 82.2007 71.2156 82.392 71.3463 82.588C71.4863 82.7747 71.5563 82.9333 71.5563 83.064L71.0523 83.246V79.494C71.0523 79.2513 71.1316 79.0507 71.2903 78.892C71.449 78.724 71.6496 78.64 71.8923 78.64ZM69.0643 87.6C69.475 87.6 69.8343 87.4973 70.1423 87.292C70.4503 87.0867 70.6883 86.8067 70.8563 86.452C71.0336 86.0973 71.1223 85.7007 71.1223 85.262C71.1223 84.814 71.0336 84.4127 70.8563 84.058C70.6883 83.7033 70.4503 83.4233 70.1423 83.218C69.8343 83.0127 69.475 82.91 69.0643 82.91C68.663 82.91 68.3083 83.0127 68.0003 83.218C67.6923 83.4233 67.4496 83.7033 67.2723 84.058C67.1043 84.4127 67.0203 84.814 67.0203 85.262C67.0203 85.7007 67.1043 86.0973 67.2723 86.452C67.4496 86.8067 67.6923 87.0867 68.0003 87.292C68.3083 87.4973 68.663 87.6 69.0643 87.6Z" fill="white"/>
<path d="M34 42.2C35.8667 34.7333 40.5333 31 48 31C59.2 31 60.6 39.4 66.2 40.8C69.9333 41.7333 73.2 40.3333 76 36.6C74.1333 44.0667 69.4667 47.8 62 47.8C50.8 47.8 49.4 39.4 43.8 38C40.0667 37.0667 36.8 38.4667 34 42.2ZM20 59C21.8667 51.5333 26.5333 47.8 34 47.8C45.2 47.8 46.6 56.2 52.2 57.6C55.9333 58.5333 59.2 57.1333 62 53.4C60.1333 60.8667 55.4667 64.6 48 64.6C36.8 64.6 35.4 56.2 29.8 54.8C26.0667 53.8667 22.8 55.2667 20 59Z" fill="#33A9DC"/>
</svg>
