<svg width="80" height="80" viewBox="0 0 80 80" fill="none" xmlns="http://www.w3.org/2000/svg">
<rect width="80" height="80" rx="10" fill="#33A9DC" fill-opacity="0.4"/>
<path d="M26 34.2C27.8667 26.7333 32.5333 23 40 23C51.2 23 52.6 31.4 58.2 32.8C61.9333 33.7333 65.2 32.3333 68 28.6C66.1333 36.0667 61.4667 39.8 54 39.8C42.8 39.8 41.4 31.4 35.8 30C32.0667 29.0667 28.8 30.4667 26 34.2ZM12 51C13.8667 43.5333 18.5333 39.8 26 39.8C37.2 39.8 38.6 48.2 44.2 49.6C47.9333 50.5333 51.2 49.1333 54 45.4C52.1333 52.8667 47.4667 56.6 40 56.6C28.8 56.6 27.4 48.2 21.8 46.8C18.0667 45.8667 14.8 47.2667 12 51Z" fill="#33A9DC"/>
</svg>
