<svg width="96" height="96" viewBox="0 0 96 96" fill="none" xmlns="http://www.w3.org/2000/svg">
<rect width="96" height="96" rx="10" fill="#007ACC" fill-opacity="0.15"/>
<path d="M17.549 89C17.2877 89 17.073 88.9207 16.905 88.762C16.737 88.594 16.653 88.3887 16.653 88.146V80.026H18.473V88.146C18.473 88.3887 18.3843 88.594 18.207 88.762C18.039 88.9207 17.8197 89 17.549 89ZM14.455 80.81C14.2123 80.81 14.007 80.7353 13.839 80.586C13.6803 80.4367 13.601 80.2407 13.601 79.998C13.601 79.7553 13.6803 79.564 13.839 79.424C14.007 79.2747 14.2123 79.2 14.455 79.2H20.671C20.9137 79.2 21.1143 79.2747 21.273 79.424C21.441 79.5733 21.525 79.7693 21.525 80.012C21.525 80.2547 21.441 80.4507 21.273 80.6C21.1143 80.74 20.9137 80.81 20.671 80.81H14.455ZM27.856 81.51C28.0986 81.51 28.2993 81.594 28.458 81.762C28.6166 81.9207 28.696 82.1213 28.696 82.364V88.314C28.696 89.1727 28.5326 89.854 28.206 90.358C27.8886 90.8713 27.4593 91.24 26.918 91.464C26.3766 91.688 25.77 91.8 25.098 91.8C24.7993 91.8 24.482 91.7767 24.146 91.73C23.81 91.6833 23.5346 91.6133 23.32 91.52C23.04 91.3987 22.844 91.2447 22.732 91.058C22.6293 90.8807 22.6106 90.6893 22.676 90.484C22.76 90.2133 22.8953 90.0267 23.082 89.924C23.2686 89.8307 23.4646 89.8213 23.67 89.896C23.8193 89.9427 24.0153 90.0127 24.258 90.106C24.5006 90.2087 24.7806 90.26 25.098 90.26C25.5273 90.26 25.882 90.1993 26.162 90.078C26.4513 89.966 26.666 89.77 26.806 89.49C26.9553 89.2193 27.03 88.846 27.03 88.37V87.432L27.324 87.768C27.1653 88.076 26.9646 88.3327 26.722 88.538C26.4886 88.734 26.2086 88.8833 25.882 88.986C25.5553 89.0887 25.182 89.14 24.762 89.14C24.2673 89.14 23.8333 89.028 23.46 88.804C23.096 88.5707 22.8113 88.2533 22.606 87.852C22.4006 87.4413 22.298 86.9747 22.298 86.452V82.364C22.298 82.1213 22.3773 81.9207 22.536 81.762C22.6946 81.594 22.8953 81.51 23.138 81.51C23.3806 81.51 23.5813 81.594 23.74 81.762C23.8986 81.9207 23.978 82.1213 23.978 82.364V85.948C23.978 86.5547 24.1086 86.984 24.37 87.236C24.6406 87.4787 25.014 87.6 25.49 87.6C25.8166 87.6 26.092 87.5393 26.316 87.418C26.54 87.2873 26.7126 87.1007 26.834 86.858C26.9553 86.606 27.016 86.3027 27.016 85.948V82.364C27.016 82.1213 27.0953 81.9207 27.254 81.762C27.4126 81.594 27.6133 81.51 27.856 81.51ZM33.9728 81.37C34.6261 81.37 35.2094 81.538 35.7228 81.874C36.2454 82.2007 36.6561 82.6533 36.9548 83.232C37.2628 83.8107 37.4168 84.4827 37.4168 85.248C37.4168 86.0133 37.2628 86.69 36.9548 87.278C36.6561 87.8567 36.2501 88.314 35.7368 88.65C35.2328 88.9767 34.6634 89.14 34.0288 89.14C33.6554 89.14 33.3054 89.0793 32.9788 88.958C32.6521 88.8367 32.3628 88.6827 32.1108 88.496C31.8681 88.3093 31.6768 88.1227 31.5368 87.936C31.4061 87.74 31.3408 87.5767 31.3408 87.446L31.7748 87.264V90.946C31.7748 91.1887 31.6954 91.3893 31.5368 91.548C31.3781 91.716 31.1774 91.8 30.9348 91.8C30.6921 91.8 30.4914 91.7207 30.3328 91.562C30.1741 91.4033 30.0948 91.198 30.0948 90.946V82.364C30.0948 82.1213 30.1741 81.9207 30.3328 81.762C30.4914 81.594 30.6921 81.51 30.9348 81.51C31.1774 81.51 31.3781 81.594 31.5368 81.762C31.6954 81.9207 31.7748 82.1213 31.7748 82.364V83.05L31.5368 82.924C31.5368 82.8027 31.6021 82.658 31.7328 82.49C31.8634 82.3127 32.0408 82.14 32.2648 81.972C32.4888 81.7947 32.7454 81.65 33.0348 81.538C33.3334 81.426 33.6461 81.37 33.9728 81.37ZM33.7628 82.91C33.3521 82.91 32.9928 83.0127 32.6848 83.218C32.3768 83.4233 32.1341 83.7033 31.9568 84.058C31.7888 84.4033 31.7048 84.8 31.7048 85.248C31.7048 85.6867 31.7888 86.088 31.9568 86.452C32.1341 86.8067 32.3768 87.0867 32.6848 87.292C32.9928 87.4973 33.3521 87.6 33.7628 87.6C34.1734 87.6 34.5281 87.4973 34.8268 87.292C35.1348 87.0867 35.3728 86.8067 35.5408 86.452C35.7181 86.088 35.8068 85.6867 35.8068 85.248C35.8068 84.8 35.7181 84.4033 35.5408 84.058C35.3728 83.7033 35.1348 83.4233 34.8268 83.218C34.5281 83.0127 34.1734 82.91 33.7628 82.91ZM41.9938 89.14C41.2004 89.14 40.5098 88.9767 39.9218 88.65C39.3431 88.314 38.8951 87.8613 38.5778 87.292C38.2698 86.7227 38.1158 86.0787 38.1158 85.36C38.1158 84.52 38.2838 83.806 38.6198 83.218C38.9651 82.6207 39.4131 82.1633 39.9638 81.846C40.5144 81.5287 41.0978 81.37 41.7138 81.37C42.1898 81.37 42.6378 81.468 43.0578 81.664C43.4871 81.86 43.8651 82.1307 44.1918 82.476C44.5184 82.812 44.7751 83.204 44.9618 83.652C45.1578 84.1 45.2558 84.576 45.2558 85.08C45.2464 85.304 45.1578 85.486 44.9898 85.626C44.8218 85.766 44.6258 85.836 44.4018 85.836H39.0538L38.6338 84.436H43.7718L43.4638 84.716V84.338C43.4451 84.0673 43.3471 83.8247 43.1698 83.61C43.0018 83.3953 42.7871 83.2273 42.5258 83.106C42.2738 82.9753 42.0031 82.91 41.7138 82.91C41.4338 82.91 41.1724 82.9473 40.9298 83.022C40.6871 83.0967 40.4771 83.2227 40.2998 83.4C40.1224 83.5773 39.9824 83.8153 39.8798 84.114C39.7771 84.4127 39.7258 84.7907 39.7258 85.248C39.7258 85.752 39.8284 86.1813 40.0338 86.536C40.2484 86.8813 40.5191 87.1473 40.8458 87.334C41.1818 87.5113 41.5364 87.6 41.9098 87.6C42.2551 87.6 42.5304 87.572 42.7358 87.516C42.9411 87.46 43.1044 87.3947 43.2258 87.32C43.3564 87.236 43.4731 87.166 43.5758 87.11C43.7438 87.026 43.9024 86.984 44.0518 86.984C44.2571 86.984 44.4251 87.054 44.5558 87.194C44.6958 87.334 44.7658 87.4973 44.7658 87.684C44.7658 87.936 44.6351 88.1647 44.3738 88.37C44.1311 88.5753 43.7904 88.7573 43.3518 88.916C42.9131 89.0653 42.4604 89.14 41.9938 89.14ZM49.5936 89.14C48.9403 89.14 48.3523 89.0607 47.8296 88.902C47.3069 88.734 46.8076 88.4447 46.3316 88.034C46.2103 87.9313 46.1169 87.8147 46.0516 87.684C45.9863 87.5533 45.9536 87.4227 45.9536 87.292C45.9536 87.0773 46.0283 86.8907 46.1776 86.732C46.3363 86.564 46.5323 86.48 46.7656 86.48C46.9429 86.48 47.1016 86.536 47.2416 86.648C47.5963 86.9373 47.9463 87.1567 48.2916 87.306C48.6463 87.4553 49.0803 87.53 49.5936 87.53C49.9389 87.53 50.2563 87.4787 50.5456 87.376C50.8349 87.264 51.0683 87.1193 51.2456 86.942C51.4229 86.7553 51.5116 86.5453 51.5116 86.312C51.5116 86.032 51.4276 85.794 51.2596 85.598C51.0916 85.402 50.8349 85.2387 50.4896 85.108C50.1443 84.968 49.7056 84.8607 49.1736 84.786C48.6696 84.7113 48.2263 84.5993 47.8436 84.45C47.4609 84.2913 47.1389 84.0953 46.8776 83.862C46.6256 83.6193 46.4343 83.3393 46.3036 83.022C46.1729 82.6953 46.1076 82.3313 46.1076 81.93C46.1076 81.3233 46.2616 80.8053 46.5696 80.376C46.8869 79.9467 47.3116 79.62 47.8436 79.396C48.3756 79.172 48.9636 79.06 49.6076 79.06C50.2143 79.06 50.7743 79.1533 51.2876 79.34C51.8103 79.5173 52.2349 79.746 52.5616 80.026C52.8323 80.2407 52.9676 80.488 52.9676 80.768C52.9676 80.9733 52.8883 81.16 52.7296 81.328C52.5709 81.496 52.3843 81.58 52.1696 81.58C52.0296 81.58 51.9036 81.538 51.7916 81.454C51.6423 81.3233 51.4416 81.202 51.1896 81.09C50.9376 80.9687 50.6716 80.8707 50.3916 80.796C50.1116 80.712 49.8503 80.67 49.6076 80.67C49.2063 80.67 48.8656 80.7213 48.5856 80.824C48.3149 80.9267 48.1096 81.0667 47.9696 81.244C47.8296 81.4213 47.7596 81.6267 47.7596 81.86C47.7596 82.14 47.8389 82.3733 47.9976 82.56C48.1656 82.7373 48.4036 82.882 48.7116 82.994C49.0196 83.0967 49.3883 83.19 49.8176 83.274C50.3776 83.3767 50.8676 83.498 51.2876 83.638C51.7169 83.778 52.0716 83.96 52.3516 84.184C52.6316 84.3987 52.8416 84.674 52.9816 85.01C53.1216 85.3367 53.1916 85.738 53.1916 86.214C53.1916 86.8207 53.0236 87.3433 52.6876 87.782C52.3516 88.2207 51.9083 88.5567 51.3576 88.79C50.8163 89.0233 50.2283 89.14 49.5936 89.14ZM57.5691 81.37C58.1011 81.37 58.5631 81.426 58.9551 81.538C59.3564 81.65 59.6644 81.8087 59.8791 82.014C60.1031 82.21 60.2151 82.448 60.2151 82.728C60.2151 82.9147 60.1591 83.092 60.0471 83.26C59.9351 83.4187 59.7718 83.498 59.5571 83.498C59.4078 83.498 59.2818 83.4793 59.1791 83.442C59.0858 83.3953 59.0018 83.3393 58.9271 83.274C58.8524 83.2087 58.7638 83.148 58.6611 83.092C58.5678 83.036 58.4231 82.994 58.2271 82.966C58.0404 82.9287 57.9004 82.91 57.8071 82.91C57.3311 82.91 56.9251 83.0127 56.5891 83.218C56.2624 83.4233 56.0104 83.7033 55.8331 84.058C55.6558 84.4033 55.5671 84.8047 55.5671 85.262C55.5671 85.71 55.6558 86.1113 55.8331 86.466C56.0198 86.8113 56.2718 87.0867 56.5891 87.292C56.9158 87.4973 57.2891 87.6 57.7091 87.6C57.9424 87.6 58.1431 87.586 58.3111 87.558C58.4791 87.53 58.6191 87.488 58.7311 87.432C58.8618 87.3573 58.9784 87.278 59.0811 87.194C59.1838 87.11 59.3378 87.068 59.5431 87.068C59.7858 87.068 59.9724 87.1473 60.1031 87.306C60.2338 87.4553 60.2991 87.642 60.2991 87.866C60.2991 88.0993 60.1684 88.314 59.9071 88.51C59.6458 88.6967 59.3004 88.8507 58.8711 88.972C58.4511 89.084 57.9938 89.14 57.4991 89.14C56.7618 89.14 56.1224 88.972 55.5811 88.636C55.0398 88.2907 54.6198 87.824 54.3211 87.236C54.0318 86.648 53.8871 85.99 53.8871 85.262C53.8871 84.4967 54.0411 83.8247 54.3491 83.246C54.6664 82.658 55.1004 82.2007 55.6511 81.874C56.2111 81.538 56.8504 81.37 57.5691 81.37ZM61.9305 89C61.6879 89 61.4872 88.9207 61.3285 88.762C61.1699 88.594 61.0905 88.3887 61.0905 88.146V82.364C61.0905 82.1213 61.1699 81.9207 61.3285 81.762C61.4872 81.594 61.6879 81.51 61.9305 81.51C62.1732 81.51 62.3739 81.594 62.5325 81.762C62.6912 81.9207 62.7705 82.1213 62.7705 82.364V83.68L62.6725 82.742C62.7752 82.518 62.9059 82.322 63.0645 82.154C63.2325 81.9767 63.4192 81.832 63.6245 81.72C63.8299 81.5987 64.0492 81.51 64.2825 81.454C64.5159 81.398 64.7492 81.37 64.9825 81.37C65.2625 81.37 65.4959 81.4493 65.6825 81.608C65.8785 81.7667 65.9765 81.9533 65.9765 82.168C65.9765 82.476 65.8972 82.7 65.7385 82.84C65.5799 82.9707 65.4072 83.036 65.2205 83.036C65.0432 83.036 64.8799 83.0033 64.7305 82.938C64.5905 82.8727 64.4272 82.84 64.2405 82.84C64.0725 82.84 63.8999 82.882 63.7225 82.966C63.5545 83.0407 63.3959 83.162 63.2465 83.33C63.1065 83.498 62.9899 83.708 62.8965 83.96C62.8125 84.2027 62.7705 84.492 62.7705 84.828V88.146C62.7705 88.3887 62.6912 88.594 62.5325 88.762C62.3739 88.9207 62.1732 89 61.9305 89ZM68.3229 88.146C68.3229 88.3887 68.2435 88.594 68.0849 88.762C67.9262 88.9207 67.7255 89 67.4829 89C67.2402 89 67.0395 88.9207 66.8809 88.762C66.7222 88.594 66.6429 88.3887 66.6429 88.146V82.364C66.6429 82.1213 66.7222 81.9207 66.8809 81.762C67.0395 81.594 67.2402 81.51 67.4829 81.51C67.7255 81.51 67.9262 81.594 68.0849 81.762C68.2435 81.9207 68.3229 82.1213 68.3229 82.364V88.146ZM67.4689 80.6C67.1515 80.6 66.9275 80.5487 66.7969 80.446C66.6662 80.3433 66.6009 80.1613 66.6009 79.9V79.634C66.6009 79.3633 66.6709 79.1813 66.8109 79.088C66.9602 78.9853 67.1842 78.934 67.4829 78.934C67.8095 78.934 68.0382 78.9853 68.1689 79.088C68.2995 79.1907 68.3649 79.3727 68.3649 79.634V79.9C68.3649 80.1707 68.2949 80.3573 68.1549 80.46C68.0149 80.5533 67.7862 80.6 67.4689 80.6ZM73.5075 81.37C74.1608 81.37 74.7441 81.538 75.2575 81.874C75.7801 82.2007 76.1908 82.6533 76.4895 83.232C76.7975 83.8107 76.9515 84.4827 76.9515 85.248C76.9515 86.0133 76.7975 86.69 76.4895 87.278C76.1908 87.8567 75.7848 88.314 75.2715 88.65C74.7675 88.9767 74.1981 89.14 73.5635 89.14C73.1901 89.14 72.8401 89.0793 72.5135 88.958C72.1868 88.8367 71.8975 88.6827 71.6455 88.496C71.4028 88.3093 71.2115 88.1227 71.0715 87.936C70.9408 87.74 70.8755 87.5767 70.8755 87.446L71.3095 87.264V90.946C71.3095 91.1887 71.2301 91.3893 71.0715 91.548C70.9128 91.716 70.7121 91.8 70.4695 91.8C70.2268 91.8 70.0261 91.7207 69.8675 91.562C69.7088 91.4033 69.6295 91.198 69.6295 90.946V82.364C69.6295 82.1213 69.7088 81.9207 69.8675 81.762C70.0261 81.594 70.2268 81.51 70.4695 81.51C70.7121 81.51 70.9128 81.594 71.0715 81.762C71.2301 81.9207 71.3095 82.1213 71.3095 82.364V83.05L71.0715 82.924C71.0715 82.8027 71.1368 82.658 71.2675 82.49C71.3981 82.3127 71.5755 82.14 71.7995 81.972C72.0235 81.7947 72.2801 81.65 72.5695 81.538C72.8681 81.426 73.1808 81.37 73.5075 81.37ZM73.2975 82.91C72.8868 82.91 72.5275 83.0127 72.2195 83.218C71.9115 83.4233 71.6688 83.7033 71.4915 84.058C71.3235 84.4033 71.2395 84.8 71.2395 85.248C71.2395 85.6867 71.3235 86.088 71.4915 86.452C71.6688 86.8067 71.9115 87.0867 72.2195 87.292C72.5275 87.4973 72.8868 87.6 73.2975 87.6C73.7081 87.6 74.0628 87.4973 74.3615 87.292C74.6695 87.0867 74.9075 86.8067 75.0755 86.452C75.2528 86.088 75.3415 85.6867 75.3415 85.248C75.3415 84.8 75.2528 84.4033 75.0755 84.058C74.9075 83.7033 74.6695 83.4233 74.3615 83.218C74.0628 83.0127 73.7081 82.91 73.2975 82.91ZM78.0845 81.65H81.4025C81.6265 81.65 81.8131 81.7247 81.9625 81.874C82.1118 82.0233 82.1865 82.21 82.1865 82.434C82.1865 82.6487 82.1118 82.8307 81.9625 82.98C81.8131 83.12 81.6265 83.19 81.4025 83.19H78.0845C77.8605 83.19 77.6738 83.1153 77.5245 82.966C77.3751 82.8167 77.3005 82.63 77.3005 82.406C77.3005 82.1913 77.3751 82.014 77.5245 81.874C77.6738 81.7247 77.8605 81.65 78.0845 81.65ZM79.5825 79.9C79.8251 79.9 80.0211 79.984 80.1705 80.152C80.3291 80.3107 80.4085 80.5113 80.4085 80.754V86.984C80.4085 87.1147 80.4318 87.222 80.4785 87.306C80.5345 87.39 80.6045 87.4507 80.6885 87.488C80.7818 87.5253 80.8798 87.544 80.9825 87.544C81.0945 87.544 81.1971 87.5253 81.2905 87.488C81.3838 87.4413 81.4911 87.418 81.6125 87.418C81.7431 87.418 81.8598 87.4787 81.9625 87.6C82.0745 87.7213 82.1305 87.8893 82.1305 88.104C82.1305 88.3653 81.9858 88.58 81.6965 88.748C81.4165 88.916 81.1131 89 80.7865 89C80.5905 89 80.3711 88.986 80.1285 88.958C79.8951 88.9207 79.6711 88.8413 79.4565 88.72C79.2511 88.5893 79.0785 88.3933 78.9385 88.132C78.7985 87.8707 78.7285 87.5113 78.7285 87.054V80.754C78.7285 80.5113 78.8078 80.3107 78.9665 80.152C79.1345 79.984 79.3398 79.9 79.5825 79.9Z" fill="white"/>
<path d="M16 41V9H80V73H16" fill="#007ACC"/>
<path d="M30.0322 41.112V43.72H38.3522V67.4H44.2562V43.72H52.5762V41.16C52.5762 39.72 52.5762 38.552 52.5122 38.52C52.5122 38.472 47.4402 38.456 41.2802 38.456L30.0802 38.504V41.128L30.0322 41.112ZM67.4242 38.44C69.0562 38.824 70.3042 39.56 71.4242 40.728C72.0162 41.368 72.8962 42.488 72.9602 42.776C72.9602 42.872 70.1922 44.744 68.5122 45.784C68.4482 45.832 68.1922 45.56 67.9362 45.144C67.1042 43.96 66.2562 43.448 64.9282 43.352C63.0082 43.224 61.7282 44.232 61.7282 45.912C61.7282 46.424 61.8242 46.712 62.0162 47.128C62.4482 48.008 63.2482 48.536 65.7282 49.624C70.3042 51.592 72.2882 52.888 73.4882 54.744C74.8482 56.824 75.1522 60.088 74.2402 62.536C73.2162 65.208 70.7202 67.016 67.1522 67.608C66.0322 67.8 63.4722 67.768 62.2722 67.56C59.7122 67.08 57.2642 65.8 55.7602 64.152C55.1682 63.512 54.0322 61.8 54.0962 61.688L54.7042 61.304L57.1042 59.912L58.9122 58.856L59.3282 59.416C59.8562 60.248 61.0402 61.368 61.7282 61.752C63.8082 62.824 66.5922 62.68 67.9682 61.432C68.5602 60.888 68.8162 60.312 68.8162 59.512C68.8162 58.776 68.7042 58.44 68.3362 57.88C67.8242 57.176 66.8002 56.6 63.9202 55.32C60.6082 53.912 59.2002 53.016 57.8882 51.64C57.1362 50.808 56.4482 49.512 56.1282 48.44C55.8882 47.512 55.8082 45.24 56.0322 44.328C56.7202 41.128 59.1362 38.888 62.5922 38.248C63.7122 38.024 66.3522 38.12 67.4562 38.408L67.4242 38.44Z" fill="white"/>
</svg>
