<svg width="80" height="80" viewBox="0 0 80 80" fill="none" xmlns="http://www.w3.org/2000/svg">
<rect width="80" height="80" rx="10" fill="#007ACC" fill-opacity="0.4"/>
<path d="M8 40V8H72V72H8" fill="#007ACC"/>
<path d="M25 40.9878V43.5958H32.8581V67.2758H38.4344V43.5958H46.2925V41.0358C46.2925 39.5958 46.2925 38.4278 46.232 38.3958C46.232 38.3478 41.4416 38.3318 35.6236 38.3318L25.0453 38.3798V41.0038L25 40.9878ZM60.3162 38.3158C61.8576 38.6998 63.0363 39.4358 64.0941 40.6038C64.6533 41.2438 65.4844 42.3638 65.5449 42.6518C65.5449 42.7478 62.9305 44.6198 61.3438 45.6598C61.2834 45.7078 61.0416 45.4358 60.7998 45.0198C60.014 43.8358 59.213 43.3238 57.9588 43.2278C56.1453 43.0998 54.9364 44.1078 54.9364 45.7878C54.9364 46.2998 55.0271 46.5878 55.2084 47.0038C55.6164 47.8838 56.372 48.4118 58.7143 49.4998C63.0363 51.4678 64.9102 52.7638 66.0436 54.6198C67.3281 56.6998 67.6152 59.9638 66.7538 62.4118C65.7867 65.0838 63.4292 66.8918 60.0593 67.4838C59.0015 67.6758 56.5836 67.6438 55.4502 67.4358C53.0323 66.9558 50.7202 65.6758 49.2997 64.0278C48.7406 63.3878 47.6676 61.6758 47.7281 61.5638L48.3023 61.1798L50.5691 59.7878L52.2767 58.7318L52.6696 59.2918C53.1683 60.1238 54.2866 61.2438 54.9364 61.6278C56.9009 62.6998 59.5304 62.5558 60.83 61.3078C61.3891 60.7638 61.6309 60.1878 61.6309 59.3878C61.6309 58.6518 61.5251 58.3158 61.1776 57.7558C60.694 57.0518 59.7268 56.4758 57.0067 55.1958C53.8786 53.7878 52.5487 52.8918 51.3096 51.5158C50.5993 50.6838 49.9495 49.3878 49.6473 48.3158C49.4206 47.3878 49.3451 45.1158 49.5566 44.2038C50.2064 41.0038 52.4883 38.7638 55.7524 38.1238C56.8103 37.8998 59.3037 37.9958 60.3464 38.2838L60.3162 38.3158Z" fill="white"/>
</svg>
