<svg width="80" height="80" viewBox="0 0 80 80" fill="none" xmlns="http://www.w3.org/2000/svg">
<rect width="80" height="80" rx="10" fill="#007099" fill-opacity="0.4"/>
<path d="M40 8C22.3552 8 8 22.3542 8 39.999C8 57.6437 22.3552 72 40 72C57.6443 72 72 57.6437 72 39.999C72 22.3542 57.6443 8 40 8ZM11.2297 39.999C11.2297 35.8276 12.1246 31.8677 13.7208 28.2901L27.4454 65.8917C17.8464 61.2292 11.2297 51.3865 11.2297 39.999ZM40 68.7714C37.1761 68.7714 34.4505 68.3573 31.8719 67.599L40.5052 42.5158L49.348 66.7439C49.4064 66.886 49.4776 67.0168 49.5542 67.1403C46.5636 68.1928 43.35 68.7714 40 68.7714ZM43.9651 26.5094C45.6969 26.4187 47.2578 26.2365 47.2578 26.2365C48.8078 26.0531 48.625 23.7744 47.0739 23.8656C47.0739 23.8656 42.414 24.2312 39.4052 24.2312C36.5787 24.2312 31.8287 23.8656 31.8287 23.8656C30.2771 23.7744 30.0954 26.1448 31.6463 26.2365C31.6463 26.2365 33.1135 26.4187 34.6641 26.5094L39.1458 38.7913L32.8489 57.674L22.3723 26.5094C24.1057 26.4187 25.6645 26.2365 25.6645 26.2365C27.214 26.0531 27.0312 23.7744 25.4806 23.8656C25.4806 23.8656 20.8218 24.2312 17.8129 24.2312C17.2732 24.2312 16.6374 24.2177 15.9613 24.1958C21.1057 16.386 29.9485 11.2281 40 11.2281C47.4896 11.2281 54.3093 14.0921 59.4281 18.7822C59.3042 18.7749 59.1828 18.7593 59.0551 18.7593C56.2292 18.7593 54.2239 21.2207 54.2239 23.8656C54.2239 26.2365 55.5916 28.2427 57.0499 30.613C58.1442 32.5292 59.4218 34.9907 59.4218 38.5479C59.4218 41.0098 58.475 43.8677 57.2327 47.8485L54.3624 57.4364L43.9651 26.5094ZM54.464 64.8667L63.2515 39.4594C64.8927 35.3552 65.4396 32.0729 65.4396 29.1553C65.4396 28.096 65.3697 27.1126 65.2458 26.1964C67.4917 30.2938 68.7698 34.9964 68.7698 39.999C68.7698 50.613 63.0177 59.8797 54.464 64.8667Z" fill="#007099" stroke="#007099" stroke-width="0.1875"/>
</svg>
