<svg width="96" height="96" viewBox="0 0 96 96" fill="none" xmlns="http://www.w3.org/2000/svg">
<rect width="96" height="96" rx="10" fill="#007099" fill-opacity="0.15"/>
<path d="M25.6269 79.158C25.8416 79.158 26.0469 79.242 26.2429 79.41C26.4389 79.5687 26.5369 79.788 26.5369 80.068C26.5369 80.152 26.5229 80.2453 26.4949 80.348L23.7369 88.468C23.6809 88.636 23.5782 88.7667 23.4289 88.86C23.2889 88.944 23.1396 88.9907 22.9809 89C22.8222 89 22.6636 88.9533 22.5049 88.86C22.3556 88.7667 22.2389 88.6313 22.1549 88.454L20.0829 83.75L20.2089 83.834L18.1649 88.454C18.0809 88.6313 17.9596 88.7667 17.8009 88.86C17.6516 88.9533 17.4976 89 17.3389 89C17.1896 88.9907 17.0402 88.944 16.8909 88.86C16.7416 88.7667 16.6389 88.636 16.5829 88.468L13.8249 80.348C13.7969 80.2453 13.7829 80.152 13.7829 80.068C13.7829 79.788 13.8809 79.5687 14.0769 79.41C14.2822 79.242 14.4922 79.158 14.7069 79.158C14.8842 79.158 15.0476 79.2047 15.1969 79.298C15.3556 79.3913 15.4629 79.5267 15.5189 79.704L17.7449 86.452L17.4369 86.438L19.4249 81.664C19.4996 81.496 19.6069 81.3653 19.7469 81.272C19.8869 81.1693 20.0456 81.1227 20.2229 81.132C20.4002 81.1227 20.5589 81.1693 20.6989 81.272C20.8389 81.3653 20.9416 81.496 21.0069 81.664L22.8269 86.228L22.6029 86.368L24.8009 79.704C24.8569 79.5267 24.9642 79.3913 25.1229 79.298C25.2816 79.2047 25.4496 79.158 25.6269 79.158ZM34.3169 85.262C34.3169 86.0273 34.1442 86.704 33.7989 87.292C33.4629 87.8707 33.0055 88.3233 32.4269 88.65C31.8575 88.9767 31.2182 89.14 30.5089 89.14C29.7995 89.14 29.1555 88.9767 28.5769 88.65C28.0075 88.3233 27.5502 87.8707 27.2049 87.292C26.8689 86.704 26.7009 86.0273 26.7009 85.262C26.7009 84.4967 26.8689 83.8247 27.2049 83.246C27.5502 82.658 28.0075 82.2007 28.5769 81.874C29.1555 81.538 29.7995 81.37 30.5089 81.37C31.2182 81.37 31.8575 81.538 32.4269 81.874C33.0055 82.2007 33.4629 82.658 33.7989 83.246C34.1442 83.8247 34.3169 84.4967 34.3169 85.262ZM32.6369 85.262C32.6369 84.786 32.5389 84.3753 32.3429 84.03C32.1562 83.6753 31.8995 83.4 31.5729 83.204C31.2555 83.008 30.9009 82.91 30.5089 82.91C30.1169 82.91 29.7575 83.008 29.4309 83.204C29.1135 83.4 28.8569 83.6753 28.6609 84.03C28.4742 84.3753 28.3809 84.786 28.3809 85.262C28.3809 85.7287 28.4742 86.1393 28.6609 86.494C28.8569 86.8393 29.1135 87.11 29.4309 87.306C29.7575 87.502 30.1169 87.6 30.5089 87.6C30.9009 87.6 31.2555 87.502 31.5729 87.306C31.8995 87.11 32.1562 86.8393 32.3429 86.494C32.5389 86.1393 32.6369 85.7287 32.6369 85.262ZM36.2072 89C35.9645 89 35.7639 88.9207 35.6052 88.762C35.4465 88.594 35.3672 88.3887 35.3672 88.146V82.364C35.3672 82.1213 35.4465 81.9207 35.6052 81.762C35.7639 81.594 35.9645 81.51 36.2072 81.51C36.4499 81.51 36.6505 81.594 36.8092 81.762C36.9679 81.9207 37.0472 82.1213 37.0472 82.364V83.68L36.9492 82.742C37.0519 82.518 37.1825 82.322 37.3412 82.154C37.5092 81.9767 37.6959 81.832 37.9012 81.72C38.1065 81.5987 38.3259 81.51 38.5592 81.454C38.7925 81.398 39.0259 81.37 39.2592 81.37C39.5392 81.37 39.7725 81.4493 39.9592 81.608C40.1552 81.7667 40.2532 81.9533 40.2532 82.168C40.2532 82.476 40.1739 82.7 40.0152 82.84C39.8565 82.9707 39.6839 83.036 39.4972 83.036C39.3199 83.036 39.1565 83.0033 39.0072 82.938C38.8672 82.8727 38.7039 82.84 38.5172 82.84C38.3492 82.84 38.1765 82.882 37.9992 82.966C37.8312 83.0407 37.6725 83.162 37.5232 83.33C37.3832 83.498 37.2665 83.708 37.1732 83.96C37.0892 84.2027 37.0472 84.492 37.0472 84.828V88.146C37.0472 88.3887 36.9679 88.594 36.8092 88.762C36.6505 88.9207 36.4499 89 36.2072 89ZM46.835 78.64C47.0777 78.64 47.2784 78.7193 47.437 78.878C47.5957 79.0367 47.675 79.242 47.675 79.494V88.146C47.675 88.3887 47.5957 88.594 47.437 88.762C47.2784 88.9207 47.0777 89 46.835 89C46.5924 89 46.3917 88.9207 46.233 88.762C46.0744 88.594 45.995 88.3887 45.995 88.146V87.46L46.303 87.586C46.303 87.7073 46.2377 87.8567 46.107 88.034C45.9764 88.202 45.799 88.37 45.575 88.538C45.351 88.706 45.085 88.8507 44.777 88.972C44.4784 89.084 44.1517 89.14 43.797 89.14C43.153 89.14 42.5697 88.9767 42.047 88.65C41.5244 88.314 41.109 87.8567 40.801 87.278C40.5024 86.69 40.353 86.018 40.353 85.262C40.353 84.4967 40.5024 83.8247 40.801 83.246C41.109 82.658 41.5197 82.2007 42.033 81.874C42.5464 81.538 43.1157 81.37 43.741 81.37C44.1424 81.37 44.511 81.4307 44.847 81.552C45.183 81.6733 45.4724 81.8273 45.715 82.014C45.967 82.2007 46.1584 82.392 46.289 82.588C46.429 82.7747 46.499 82.9333 46.499 83.064L45.995 83.246V79.494C45.995 79.2513 46.0744 79.0507 46.233 78.892C46.3917 78.724 46.5924 78.64 46.835 78.64ZM44.007 87.6C44.4177 87.6 44.777 87.4973 45.085 87.292C45.393 87.0867 45.631 86.8067 45.799 86.452C45.9764 86.0973 46.065 85.7007 46.065 85.262C46.065 84.814 45.9764 84.4127 45.799 84.058C45.631 83.7033 45.393 83.4233 45.085 83.218C44.777 83.0127 44.4177 82.91 44.007 82.91C43.6057 82.91 43.251 83.0127 42.943 83.218C42.635 83.4233 42.3924 83.7033 42.215 84.058C42.047 84.4127 41.963 84.814 41.963 85.262C41.963 85.7007 42.047 86.0973 42.215 86.452C42.3924 86.8067 42.635 87.0867 42.943 87.292C43.251 87.4973 43.6057 87.6 44.007 87.6ZM53.2601 79.2C53.7454 79.2 54.1981 79.34 54.6181 79.62C55.0474 79.9 55.3927 80.278 55.6541 80.754C55.9154 81.23 56.0461 81.762 56.0461 82.35C56.0461 82.9287 55.9154 83.456 55.6541 83.932C55.3927 84.408 55.0474 84.7907 54.6181 85.08C54.1981 85.36 53.7454 85.5 53.2601 85.5H50.6841L50.8241 85.248V88.146C50.8241 88.3887 50.7494 88.594 50.6001 88.762C50.4507 88.9207 50.2547 89 50.0121 89C49.7787 89 49.5874 88.9207 49.4381 88.762C49.2887 88.594 49.2141 88.3887 49.2141 88.146V80.054C49.2141 79.8113 49.2934 79.6107 49.4521 79.452C49.6201 79.284 49.8254 79.2 50.0681 79.2H53.2601ZM53.2601 83.904C53.4374 83.904 53.6101 83.8293 53.7781 83.68C53.9461 83.5307 54.0861 83.3393 54.1981 83.106C54.3101 82.8633 54.3661 82.6113 54.3661 82.35C54.3661 82.0793 54.3101 81.8273 54.1981 81.594C54.0861 81.3607 53.9461 81.174 53.7781 81.034C53.6101 80.8847 53.4374 80.81 53.2601 80.81H50.6561L50.8241 80.558V84.128L50.6701 83.904H53.2601ZM57.9296 89C57.6869 89 57.4863 88.9207 57.3276 88.762C57.1689 88.594 57.0896 88.3887 57.0896 88.146V82.364C57.0896 82.1213 57.1689 81.9207 57.3276 81.762C57.4863 81.594 57.6869 81.51 57.9296 81.51C58.1723 81.51 58.3729 81.594 58.5316 81.762C58.6903 81.9207 58.7696 82.1213 58.7696 82.364V83.68L58.6716 82.742C58.7743 82.518 58.9049 82.322 59.0636 82.154C59.2316 81.9767 59.4183 81.832 59.6236 81.72C59.8289 81.5987 60.0483 81.51 60.2816 81.454C60.5149 81.398 60.7483 81.37 60.9816 81.37C61.2616 81.37 61.4949 81.4493 61.6816 81.608C61.8776 81.7667 61.9756 81.9533 61.9756 82.168C61.9756 82.476 61.8963 82.7 61.7376 82.84C61.5789 82.9707 61.4063 83.036 61.2196 83.036C61.0423 83.036 60.8789 83.0033 60.7296 82.938C60.5896 82.8727 60.4263 82.84 60.2396 82.84C60.0716 82.84 59.8989 82.882 59.7216 82.966C59.5536 83.0407 59.3949 83.162 59.2456 83.33C59.1056 83.498 58.9889 83.708 58.8956 83.96C58.8116 84.2027 58.7696 84.492 58.7696 84.828V88.146C58.7696 88.3887 58.6903 88.594 58.5316 88.762C58.3729 88.9207 58.1723 89 57.9296 89ZM65.9535 89.14C65.1601 89.14 64.4695 88.9767 63.8815 88.65C63.3028 88.314 62.8548 87.8613 62.5375 87.292C62.2295 86.7227 62.0755 86.0787 62.0755 85.36C62.0755 84.52 62.2435 83.806 62.5795 83.218C62.9248 82.6207 63.3728 82.1633 63.9235 81.846C64.4741 81.5287 65.0575 81.37 65.6735 81.37C66.1495 81.37 66.5975 81.468 67.0175 81.664C67.4468 81.86 67.8248 82.1307 68.1515 82.476C68.4781 82.812 68.7348 83.204 68.9215 83.652C69.1175 84.1 69.2155 84.576 69.2155 85.08C69.2061 85.304 69.1175 85.486 68.9495 85.626C68.7815 85.766 68.5855 85.836 68.3615 85.836H63.0135L62.5935 84.436H67.7315L67.4235 84.716V84.338C67.4048 84.0673 67.3068 83.8247 67.1295 83.61C66.9615 83.3953 66.7468 83.2273 66.4855 83.106C66.2335 82.9753 65.9628 82.91 65.6735 82.91C65.3935 82.91 65.1321 82.9473 64.8895 83.022C64.6468 83.0967 64.4368 83.2227 64.2595 83.4C64.0821 83.5773 63.9421 83.8153 63.8395 84.114C63.7368 84.4127 63.6855 84.7907 63.6855 85.248C63.6855 85.752 63.7881 86.1813 63.9935 86.536C64.2081 86.8813 64.4788 87.1473 64.8055 87.334C65.1415 87.5113 65.4961 87.6 65.8695 87.6C66.2148 87.6 66.4901 87.572 66.6955 87.516C66.9008 87.46 67.0641 87.3947 67.1855 87.32C67.3161 87.236 67.4328 87.166 67.5355 87.11C67.7035 87.026 67.8621 86.984 68.0115 86.984C68.2168 86.984 68.3848 87.054 68.5155 87.194C68.6555 87.334 68.7255 87.4973 68.7255 87.684C68.7255 87.936 68.5948 88.1647 68.3335 88.37C68.0908 88.5753 67.7501 88.7573 67.3115 88.916C66.8728 89.0653 66.4201 89.14 65.9535 89.14ZM69.8293 87.838C69.7359 87.7073 69.6939 87.5393 69.7033 87.334C69.7126 87.1287 69.8339 86.9513 70.0673 86.802C70.2166 86.7087 70.3753 86.6713 70.5433 86.69C70.7113 86.6993 70.8746 86.7833 71.0333 86.942C71.3039 87.2127 71.5886 87.4227 71.8873 87.572C72.1859 87.7213 72.5593 87.796 73.0073 87.796C73.1473 87.7867 73.3013 87.768 73.4693 87.74C73.6373 87.7027 73.7819 87.628 73.9033 87.516C74.0339 87.3947 74.0993 87.2127 74.0993 86.97C74.0993 86.7647 74.0293 86.6013 73.8893 86.48C73.7493 86.3587 73.5626 86.256 73.3293 86.172C73.1053 86.088 72.8533 86.0087 72.5733 85.934C72.2839 85.85 71.9853 85.7567 71.6773 85.654C71.3786 85.5513 71.1033 85.4207 70.8513 85.262C70.5993 85.094 70.3939 84.8747 70.2353 84.604C70.0766 84.3333 69.9973 83.9927 69.9973 83.582C69.9973 83.1153 70.1279 82.7187 70.3893 82.392C70.6506 82.0653 70.9866 81.8133 71.3973 81.636C71.8173 81.4587 72.2559 81.37 72.7133 81.37C73.0026 81.37 73.3059 81.4073 73.6233 81.482C73.9406 81.5473 74.2439 81.6593 74.5333 81.818C74.8226 81.9673 75.0653 82.168 75.2613 82.42C75.3639 82.56 75.4246 82.728 75.4433 82.924C75.4619 83.12 75.3733 83.2973 75.1773 83.456C75.0373 83.568 74.8739 83.6193 74.6873 83.61C74.5006 83.5913 74.3466 83.526 74.2253 83.414C74.0666 83.2087 73.8519 83.0453 73.5813 82.924C73.3199 82.8027 73.0166 82.742 72.6713 82.742C72.5313 82.742 72.3773 82.7607 72.2093 82.798C72.0506 82.826 71.9106 82.896 71.7893 83.008C71.6679 83.1107 71.6073 83.2787 71.6073 83.512C71.6073 83.7267 71.6773 83.8993 71.8173 84.03C71.9573 84.1513 72.1439 84.254 72.3773 84.338C72.6199 84.4127 72.8766 84.4873 73.1473 84.562C73.4273 84.6367 73.7119 84.7253 74.0013 84.828C74.2906 84.9307 74.5566 85.066 74.7993 85.234C75.0419 85.402 75.2379 85.6213 75.3873 85.892C75.5366 86.1533 75.6113 86.4893 75.6113 86.9C75.6113 87.376 75.4713 87.782 75.1913 88.118C74.9113 88.454 74.5613 88.7107 74.1413 88.888C73.7213 89.056 73.2919 89.14 72.8533 89.14C72.3026 89.14 71.7519 89.0467 71.2013 88.86C70.6506 88.664 70.1933 88.3233 69.8293 87.838ZM76.1632 87.838C76.0699 87.7073 76.0279 87.5393 76.0372 87.334C76.0465 87.1287 76.1679 86.9513 76.4012 86.802C76.5505 86.7087 76.7092 86.6713 76.8772 86.69C77.0452 86.6993 77.2085 86.7833 77.3672 86.942C77.6379 87.2127 77.9225 87.4227 78.2212 87.572C78.5199 87.7213 78.8932 87.796 79.3412 87.796C79.4812 87.7867 79.6352 87.768 79.8032 87.74C79.9712 87.7027 80.1159 87.628 80.2372 87.516C80.3679 87.3947 80.4332 87.2127 80.4332 86.97C80.4332 86.7647 80.3632 86.6013 80.2232 86.48C80.0832 86.3587 79.8965 86.256 79.6632 86.172C79.4392 86.088 79.1872 86.0087 78.9072 85.934C78.6179 85.85 78.3192 85.7567 78.0112 85.654C77.7125 85.5513 77.4372 85.4207 77.1852 85.262C76.9332 85.094 76.7279 84.8747 76.5692 84.604C76.4105 84.3333 76.3312 83.9927 76.3312 83.582C76.3312 83.1153 76.4619 82.7187 76.7232 82.392C76.9845 82.0653 77.3205 81.8133 77.7312 81.636C78.1512 81.4587 78.5899 81.37 79.0472 81.37C79.3365 81.37 79.6399 81.4073 79.9572 81.482C80.2745 81.5473 80.5779 81.6593 80.8672 81.818C81.1565 81.9673 81.3992 82.168 81.5952 82.42C81.6979 82.56 81.7585 82.728 81.7772 82.924C81.7959 83.12 81.7072 83.2973 81.5112 83.456C81.3712 83.568 81.2079 83.6193 81.0212 83.61C80.8345 83.5913 80.6805 83.526 80.5592 83.414C80.4005 83.2087 80.1859 83.0453 79.9152 82.924C79.6539 82.8027 79.3505 82.742 79.0052 82.742C78.8652 82.742 78.7112 82.7607 78.5432 82.798C78.3845 82.826 78.2445 82.896 78.1232 83.008C78.0019 83.1107 77.9412 83.2787 77.9412 83.512C77.9412 83.7267 78.0112 83.8993 78.1512 84.03C78.2912 84.1513 78.4779 84.254 78.7112 84.338C78.9539 84.4127 79.2105 84.4873 79.4812 84.562C79.7612 84.6367 80.0459 84.7253 80.3352 84.828C80.6245 84.9307 80.8905 85.066 81.1332 85.234C81.3759 85.402 81.5719 85.6213 81.7212 85.892C81.8705 86.1533 81.9452 86.4893 81.9452 86.9C81.9452 87.376 81.8052 87.782 81.5252 88.118C81.2452 88.454 80.8952 88.7107 80.4752 88.888C80.0552 89.056 79.6259 89.14 79.1872 89.14C78.6365 89.14 78.0859 89.0467 77.5352 88.86C76.9845 88.664 76.5272 88.3233 76.1632 87.838Z" fill="white"/>
<path d="M48 9C30.3552 9 16 23.3542 16 40.999C16 58.6437 30.3552 73 48 73C65.6443 73 80 58.6437 80 40.999C80 23.3542 65.6443 9 48 9ZM19.2297 40.999C19.2297 36.8276 20.1246 32.8677 21.7208 29.2901L35.4454 66.8917C25.8464 62.2292 19.2297 52.3865 19.2297 40.999ZM48 69.7714C45.1761 69.7714 42.4505 69.3573 39.8719 68.599L48.5052 43.5158L57.348 67.7439C57.4064 67.886 57.4776 68.0168 57.5542 68.1403C54.5636 69.1928 51.35 69.7714 48 69.7714ZM51.9651 27.5094C53.6969 27.4187 55.2578 27.2365 55.2578 27.2365C56.8078 27.0531 56.625 24.7744 55.0739 24.8656C55.0739 24.8656 50.414 25.2312 47.4052 25.2312C44.5787 25.2312 39.8287 24.8656 39.8287 24.8656C38.2771 24.7744 38.0954 27.1448 39.6463 27.2365C39.6463 27.2365 41.1135 27.4187 42.6641 27.5094L47.1458 39.7913L40.8489 58.674L30.3723 27.5094C32.1057 27.4187 33.6645 27.2365 33.6645 27.2365C35.214 27.0531 35.0312 24.7744 33.4806 24.8656C33.4806 24.8656 28.8218 25.2312 25.8129 25.2312C25.2732 25.2312 24.6374 25.2177 23.9613 25.1958C29.1057 17.386 37.9485 12.2281 48 12.2281C55.4896 12.2281 62.3093 15.0921 67.4281 19.7822C67.3042 19.7749 67.1828 19.7593 67.0551 19.7593C64.2292 19.7593 62.2239 22.2207 62.2239 24.8656C62.2239 27.2365 63.5916 29.2427 65.0499 31.613C66.1442 33.5292 67.4218 35.9907 67.4218 39.5479C67.4218 42.0098 66.475 44.8677 65.2327 48.8485L62.3624 58.4364L51.9651 27.5094ZM62.464 65.8667L71.2515 40.4594C72.8927 36.3552 73.4396 33.0729 73.4396 30.1553C73.4396 29.096 73.3697 28.1126 73.2458 27.1964C75.4917 31.2938 76.7698 35.9964 76.7698 40.999C76.7698 51.613 71.0177 60.8797 62.464 65.8667Z" fill="#007099" stroke="#007099" stroke-width="0.1875"/>
</svg>
